<?xml version="1.0" standalone="no"?>
<!DOCTYPE svg PUBLIC "-//W3C//DTD SVG 20010904//EN"
 "http://www.w3.org/TR/2001/REC-SVG-20010904/DTD/svg10.dtd">
<svg version="1.0" xmlns="http://www.w3.org/2000/svg"
 width="1274.000000pt" height="1280.000000pt" viewBox="0 0 1274.000000 1280.000000"
 preserveAspectRatio="xMidYMid meet">
<metadata>
Created by potrace 1.15, written by Peter Selinger 2001-2017
</metadata>
<g transform="translate(0.000000,1280.000000) scale(0.100000,-0.100000)"
fill="#000000" stroke="none">
<path d="M9660 12791 c0 -6 9 -15 20 -21 21 -11 50 -59 50 -83 0 -24 -181
-331 -212 -360 -26 -24 -37 -28 -72 -25 -22 3 -49 8 -58 12 -10 5 -18 4 -18 0
0 -12 251 -156 258 -149 3 3 -4 12 -17 21 -86 61 -84 109 14 274 18 30 52 88
75 129 40 70 44 73 52 51 5 -13 40 -150 79 -305 92 -369 89 -357 99 -353 5 2
60 91 122 198 125 215 153 246 218 237 19 -3 44 -8 55 -12 43 -17 -3 16 -115
79 -63 36 -117 63 -120 60 -3 -3 2 -11 10 -17 31 -24 50 -62 50 -102 0 -32
-15 -68 -72 -168 -40 -69 -74 -125 -76 -123 -2 2 -33 127 -70 277 l-68 273
-44 26 c-126 73 -160 91 -160 81z"/>
<path d="M9489 11868 c-10 -18 -8 -24 7 -35 16 -12 21 -11 31 4 17 22 16 26
-7 40 -17 11 -21 10 -31 -9z"/>
<path d="M9411 11732 c-7 -13 -6 -23 1 -30 17 -17 32 -15 45 8 11 16 10 21 -6
30 -26 13 -29 13 -40 -8z"/>
<path d="M9150 11280 c-8 -15 -6 -21 11 -30 17 -10 23 -8 34 7 12 15 12 20 -2
31 -23 17 -31 15 -43 -8z"/>
<path d="M9073 11150 c-11 -16 -9 -21 9 -34 20 -14 23 -14 36 6 14 19 13 22
-3 34 -24 18 -28 18 -42 -6z"/>
<path d="M8813 10701 c-10 -16 -9 -22 11 -34 20 -14 23 -13 35 6 12 18 11 22
-5 34 -23 17 -27 17 -41 -6z"/>
<path d="M8739 10568 c-10 -18 -8 -24 7 -35 16 -12 21 -11 31 4 18 23 16 31
-7 43 -16 8 -21 6 -31 -12z"/>
<path d="M8657 10438 c-19 -24 -207 -270 -417 -548 -210 -278 -387 -504 -394
-503 -6 1 -65 26 -131 56 -304 137 -649 232 -999 272 -165 19 -520 22 -681 5
-736 -74 -1410 -374 -1950 -867 -172 -157 -364 -376 -478 -545 -29 -43 -55
-77 -59 -78 -4 0 -291 120 -639 266 -581 245 -632 265 -647 250 -15 -15 -15
-18 3 -35 11 -10 254 -195 540 -411 286 -216 526 -398 532 -404 10 -9 -1 -43
-52 -158 -129 -292 -215 -598 -262 -928 -22 -160 -25 -673 -5 -820 94 -662
324 -1212 712 -1700 189 -238 513 -536 750 -691 l25 -16 -34 -84 c-19 -46 -45
-108 -58 -137 l-23 -53 -61 41 c-33 23 -66 40 -72 37 -7 -3 -20 -19 -30 -36
l-18 -30 71 -47 c38 -26 70 -51 70 -55 0 -4 -86 -211 -190 -459 -105 -248
-188 -455 -185 -460 21 -34 53 3 335 375 160 211 295 387 300 390 5 3 23 -1
39 -10 17 -8 32 -15 35 -15 3 0 15 18 26 40 l20 39 -30 16 -30 16 87 114 c48
63 91 115 95 115 5 0 34 -13 66 -29 186 -93 513 -202 752 -251 270 -55 370
-64 680 -64 349 0 498 17 811 94 781 193 1486 678 1937 1331 l53 77 132 -56
c73 -30 134 -57 136 -58 2 -2 -4 -15 -13 -28 -9 -14 -16 -27 -16 -30 0 -5 65
-46 73 -46 3 0 15 16 27 35 18 29 25 33 40 25 69 -37 879 -370 894 -368 22 3
29 18 18 34 -4 6 -176 138 -382 294 -206 155 -381 288 -388 295 -11 10 -7 25
22 83 20 40 36 75 36 80 0 8 -70 46 -75 40 -1 -2 -18 -33 -36 -70 l-34 -67
-100 75 c-55 42 -108 82 -119 89 -18 13 -16 18 27 112 185 395 289 827 305
1262 33 848 -236 1644 -772 2291 -164 199 -452 462 -649 593 -60 41 -76 56
-73 72 2 11 121 298 265 639 205 485 259 621 250 632 -17 21 -25 18 -62 -28z
m-2017 -799 c304 -27 644 -108 920 -219 49 -19 229 -100 239 -106 5 -4 -861
-1144 -870 -1144 -4 0 -50 11 -101 25 -92 25 -220 48 -330 60 -45 5 -58 10
-58 23 1 9 7 69 15 132 8 74 10 121 4 132 -12 21 -49 32 -109 32 -97 0 -125
-22 -110 -88 4 -21 11 -79 15 -130 l7 -92 -122 -13 c-67 -7 -123 -11 -125 -9
-1 2 -101 238 -221 526 -120 287 -220 519 -222 514 -1 -4 18 -168 43 -363 90
-707 97 -761 93 -763 -6 -6 -213 -96 -219 -96 -3 0 -27 51 -54 113 -27 61 -53
118 -58 125 -26 35 -162 -19 -191 -77 -15 -27 -14 -30 50 -117 109 -147 110
-129 -4 -215 -53 -41 -138 -113 -188 -161 -50 -49 -94 -88 -98 -88 -6 0 -1282
537 -1304 549 -10 5 2 29 44 87 473 662 1167 1123 1954 1298 105 23 346 61
445 69 95 8 450 6 555 -4z m1617 -601 c463 -329 855 -811 1084 -1333 134 -307
210 -583 261 -955 20 -145 16 -622 -6 -780 -47 -341 -162 -734 -287 -982 l-29
-57 -192 146 c-106 80 -363 274 -571 431 -281 213 -376 290 -371 302 21 54 57
226 72 344 l17 138 60 -6 c33 -4 96 -9 141 -13 l80 -6 14 33 c15 36 19 110 7
152 -11 40 -36 49 -99 39 -29 -5 -88 -12 -130 -15 l-77 -6 -6 48 c-3 26 -10
80 -16 120 -6 41 -9 75 -7 76 4 3 1003 421 1041 435 33 13 36 23 5 16 -13 -3
-111 -16 -218 -30 -107 -13 -356 -45 -554 -70 -197 -25 -360 -45 -361 -43 -1
2 -12 29 -24 61 -11 31 -32 80 -46 108 l-26 50 83 38 c46 21 104 48 131 59 41
18 47 25 47 52 0 58 -74 170 -112 170 -5 0 -47 -28 -93 -62 -46 -35 -97 -71
-112 -80 l-29 -17 -64 91 c-36 50 -109 138 -163 194 l-99 104 263 622 c144
343 268 638 276 656 7 17 15 32 18 32 3 0 44 -28 92 -62z m-1843 -519 c2 -2
-2 -58 -10 -124 -7 -66 -13 -123 -14 -127 0 -5 -18 -8 -40 -8 -32 0 -40 4 -40
18 0 10 -5 67 -11 127 -9 88 -8 109 3 117 12 8 104 6 112 -3z m-1018 -374 l52
-114 -35 -21 c-19 -11 -35 -20 -37 -20 -1 0 -26 35 -55 78 -28 42 -61 89 -73
105 -19 24 -20 29 -8 42 20 19 72 45 90 45 9 -1 34 -44 66 -115z m863 18 l-4
-88 93 -3 92 -3 0 86 0 85 31 0 c87 0 419 -66 440 -87 5 -5 -117 -173 -270
-375 l-278 -367 -168 401 c-131 312 -165 402 -155 408 8 5 52 11 99 15 74 5
104 9 120 14 1 0 1 -38 0 -86z m131 16 c0 -69 -1 -71 -22 -65 -13 3 -31 6 -40
6 -15 0 -18 10 -18 65 l0 65 40 0 40 0 0 -71z m-636 -351 c21 -167 46 -360 55
-430 10 -71 16 -128 14 -128 -6 0 -815 341 -837 352 -17 9 -16 12 15 45 49 50
214 192 281 241 64 47 60 49 107 -45 17 -35 34 -63 37 -63 16 0 154 83 154 92
0 5 -8 22 -19 36 -23 34 -63 113 -59 117 9 9 185 84 199 84 13 1 21 -49 53
-301z m-264 125 l30 -52 -37 -20 -38 -19 -31 57 -31 56 26 18 c37 24 48 19 81
-40z m-1492 -556 c303 -230 554 -422 557 -427 3 -4 -1 -26 -9 -48 -22 -62 -55
-230 -67 -344 -6 -57 -12 -104 -13 -105 -1 -1 -59 4 -129 12 -70 8 -135 11
-143 8 -23 -9 -34 -47 -34 -118 0 -46 5 -69 19 -86 18 -22 19 -22 114 -11 53
7 114 12 136 12 45 0 40 14 61 -149 6 -46 8 -87 3 -91 -4 -4 -243 -106 -530
-226 -287 -120 -521 -220 -519 -221 3 -3 362 41 910 112 245 32 232 33 247
-12 6 -20 27 -69 45 -109 30 -67 32 -74 16 -82 -9 -5 -62 -29 -117 -52 -119
-52 -125 -56 -125 -87 0 -56 73 -163 111 -163 10 0 56 27 101 61 45 33 94 67
109 75 28 14 28 14 77 -56 63 -89 197 -243 240 -276 17 -14 32 -30 32 -36 0
-6 -120 -295 -266 -642 -146 -346 -270 -641 -275 -654 l-9 -23 -72 50 c-354
245 -701 618 -924 993 -423 713 -564 1560 -393 2358 34 158 97 367 156 515 74
187 110 258 126 248 7 -4 261 -196 565 -426z m3776 193 c35 -41 81 -103 105
-137 l41 -63 -72 -36 c-40 -20 -75 -38 -78 -41 -7 -6 72 -152 85 -157 6 -2 41
14 78 37 41 24 72 36 77 31 13 -13 89 -197 85 -205 -3 -3 -30 -9 -62 -12 -32
-3 -222 -26 -422 -52 -199 -25 -365 -44 -367 -42 -2 2 73 186 167 408 94 222
175 415 180 428 10 24 10 24 65 -30 31 -30 84 -88 118 -129z m441 -151 c11
-23 15 -43 9 -48 -10 -9 -214 -101 -224 -101 -3 0 -14 16 -23 35 l-17 35 68
44 c37 25 83 58 102 75 31 26 37 27 51 15 9 -8 24 -33 34 -55z m-250 -124 c11
-19 17 -36 15 -37 -3 -2 -29 -18 -58 -35 l-52 -32 -20 39 -20 39 53 29 c28 17
55 30 58 31 3 0 14 -15 24 -34z m-3015 -640 c195 -147 359 -271 363 -275 4 -4
-74 -41 -175 -83 -101 -42 -280 -117 -398 -166 -118 -50 -217 -87 -221 -83 -6
7 -29 168 -29 206 0 16 9 17 78 15 42 -2 82 0 87 3 6 3 10 44 10 90 l0 83 -89
3 -89 3 7 87 c12 165 68 410 90 394 6 -5 171 -129 366 -277z m3249 -63 c6 -49
11 -101 11 -116 l0 -28 -82 3 -83 4 -7 -80 c-4 -50 -2 -85 4 -92 7 -9 38 -13
89 -13 l79 0 0 -44 c0 -94 -54 -385 -79 -425 -7 -10 -96 53 -375 264 -201 153
-366 280 -366 284 0 7 768 330 786 331 7 0 16 -36 23 -88z m-3821 -179 l92 -6
0 -42 0 -42 -82 -7 c-46 -3 -104 -9 -129 -12 -45 -6 -46 -5 -52 24 -3 16 -3
47 0 67 6 36 7 37 42 31 20 -3 78 -9 129 -13z m4116 -19 c4 -20 4 -49 1 -65
-8 -34 -13 -35 -165 -18 l-100 12 0 43 0 44 78 1 c42 0 95 4 117 8 22 5 45 9
51 10 7 0 15 -15 18 -35z m-286 1 c2 -1 6 -19 9 -39 l6 -36 -72 0 -71 0 0 38
c0 21 3 42 8 46 6 7 112 -1 120 -9z m-3588 -35 l0 -40 -65 0 -65 0 0 40 0 40
65 0 65 0 0 -40z m665 -952 c-98 -233 -179 -425 -181 -427 -17 -21 -312 324
-314 366 0 7 32 29 70 48 39 19 70 40 70 45 0 17 -73 142 -86 147 -7 3 -26 -4
-41 -15 -15 -11 -47 -29 -69 -40 l-41 -21 -31 67 c-17 37 -38 85 -46 108 l-14
41 181 23 c100 13 292 37 427 55 135 17 247 30 249 29 2 -2 -76 -194 -174
-426z m-436 86 c12 -20 21 -37 19 -39 -17 -11 -103 -55 -109 -55 -11 0 -42 60
-35 67 5 5 96 60 103 62 0 1 11 -15 22 -35z m2473 -206 l408 -171 -28 -31
c-74 -85 -314 -286 -340 -286 -4 0 -23 32 -42 70 -19 39 -40 70 -47 70 -15 0
-141 -68 -148 -81 -3 -5 12 -39 35 -76 22 -37 40 -71 40 -76 0 -10 -163 -87
-193 -90 -20 -2 -23 10 -74 408 -29 226 -52 418 -53 429 0 22 -50 41 442 -166z
m-2603 138 c12 -18 21 -35 21 -38 0 -3 -35 -28 -78 -56 -44 -29 -87 -61 -97
-72 -10 -11 -24 -20 -31 -20 -15 0 -64 78 -64 102 0 9 30 27 78 47 42 18 93
41 112 51 19 11 36 19 37 20 1 0 11 -15 22 -34z m1792 -504 l166 -397 -30 -7
c-17 -3 -71 -9 -120 -13 l-90 -7 5 86 c7 101 9 99 -107 94 l-70 -3 -3 -88 -3
-88 -62 7 c-132 13 -366 61 -404 83 -9 4 76 124 265 373 152 201 279 364 282
362 2 -3 79 -184 171 -402z m1859 -75 c333 -140 627 -265 654 -276 l48 -21
-18 -28 c-131 -202 -397 -496 -608 -671 -972 -809 -2324 -986 -3469 -456 -56
26 -76 40 -69 48 14 19 855 1132 857 1134 0 1 23 -5 50 -13 87 -27 277 -64
363 -70 95 -8 88 10 68 -164 l-14 -115 25 -22 c20 -19 35 -23 93 -23 57 0 73
4 95 23 24 21 25 25 16 77 -5 30 -13 90 -16 132 l-7 76 59 6 c32 4 87 11 123
16 35 5 65 8 65 7 2 -3 369 -880 411 -982 19 -44 34 -71 34 -60 0 11 -32 266
-70 568 -39 302 -68 553 -65 558 4 5 11 9 17 9 6 0 53 20 104 44 l94 45 28
-57 c16 -31 41 -87 57 -124 29 -71 47 -85 93 -73 43 10 118 63 130 90 15 33
17 27 -25 77 -20 23 -56 74 -81 112 -37 57 -42 70 -30 77 47 26 204 158 278
232 47 47 90 84 95 82 6 -1 282 -117 615 -258z m-1081 -23 l30 -55 -32 -20
c-18 -10 -34 -19 -37 -19 -3 1 -19 25 -36 55 l-32 54 32 21 c17 11 34 20 38
20 3 0 20 -25 37 -56z m68 -116 c15 -24 47 -69 71 -101 24 -32 42 -64 39 -71
-7 -19 -97 -60 -106 -50 -12 13 -104 224 -100 228 20 15 55 36 61 36 4 0 20
-19 35 -42z m-964 -90 c-2 -5 -3 -33 -3 -63 l0 -55 -40 0 -40 0 0 66 0 65 43
-3 c23 -2 41 -6 40 -10z m1 -180 c19 -166 21 -211 10 -215 -6 -2 -36 -3 -65
-1 l-54 3 3 35 c1 19 8 77 14 128 l10 92 39 0 c37 0 38 -1 43 -42z"/>
<path d="M53 10377 c45 -35 44 -79 -7 -367 -25 -140 -42 -258 -38 -261 4 -4
86 55 182 132 96 76 178 139 182 139 4 0 5 -6 3 -12 -10 -29 -76 -431 -71
-435 3 -3 94 65 202 152 243 194 250 199 315 193 27 -3 48 -1 47 4 -4 10 -191
118 -197 113 -2 -2 11 -18 28 -35 34 -35 36 -39 20 -72 -10 -23 -277 -244
-284 -236 -4 4 51 328 61 361 9 30 40 39 80 22 19 -8 34 -10 32 -5 -4 12 -261
161 -267 155 -2 -3 6 -17 20 -31 20 -22 24 -35 23 -85 -1 -33 -3 -61 -5 -62
-2 -2 -57 -45 -122 -96 -65 -51 -120 -91 -121 -89 -7 8 64 371 76 385 9 11 23
13 52 8 22 -3 38 -4 36 -1 -3 2 -60 36 -127 75 -120 70 -174 92 -120 48z"/>
<path d="M5305 10133 c-77 -40 -115 -103 -115 -190 1 -187 228 -272 354 -133
33 37 56 92 56 135 0 72 -61 163 -128 191 -45 18 -129 17 -167 -3z"/>
<path d="M6117 10112 l-88 -3 3 -47 3 -47 85 3 c47 2 88 7 92 11 4 4 4 25 0
46 l-7 40 -88 -3z"/>
<path d="M6400 10076 l0 -43 61 -7 c117 -12 117 -12 120 38 l4 44 -50 6 c-27
3 -69 6 -92 6 l-43 0 0 -44z"/>
<path d="M6770 10078 c0 -9 -3 -29 -6 -45 l-6 -29 88 -12 c98 -13 104 -11 104
44 0 37 -9 40 -112 50 -57 6 -68 4 -68 -8z"/>
<path d="M5725 10066 l-60 -11 3 -35 c4 -58 3 -58 96 -42 83 15 86 16 86 43 0
63 -12 67 -125 45z"/>
<path d="M7137 10023 c-2 -4 -7 -24 -11 -43 l-6 -36 76 -18 c41 -9 81 -19 88
-22 9 -3 16 5 20 23 4 15 9 36 12 45 4 13 -7 20 -48 31 -78 23 -125 30 -131
20z"/>
<path d="M7491 9917 c-24 -64 -22 -67 67 -97 l84 -29 14 34 c13 32 18 55 11
55 -2 0 -40 13 -85 30 l-83 30 -8 -23z"/>
<path d="M5033 9879 c-46 -17 -83 -35 -83 -40 0 -5 7 -26 15 -45 12 -29 19
-35 32 -29 10 5 48 19 85 32 l66 25 -15 44 c-8 24 -16 44 -16 43 -1 0 -39 -14
-84 -30z"/>
<path d="M7828 9761 l-16 -40 75 -35 c41 -20 79 -36 84 -36 7 0 39 62 39 77 0
5 -148 73 -159 73 -4 0 -15 -18 -23 -39z"/>
<path d="M4688 9729 c-43 -21 -78 -41 -78 -44 0 -13 35 -75 42 -75 7 0 148 68
156 75 3 3 -36 85 -41 85 -1 -1 -37 -19 -79 -41z"/>
<path d="M4368 9550 c-37 -23 -70 -45 -73 -50 -5 -8 9 -35 41 -79 2 -1 18 8
36 22 18 13 47 32 63 40 58 31 58 31 35 70 -12 21 -25 37 -28 37 -4 0 -37 -18
-74 -40z"/>
<path d="M855 9549 c-5 -14 -2 -25 6 -30 21 -13 27 -11 40 12 9 17 8 23 -2 30
-23 14 -37 10 -44 -12z"/>
<path d="M989 9478 c-10 -18 -8 -24 6 -35 14 -9 22 -10 32 -2 19 16 16 37 -7
49 -16 8 -21 6 -31 -12z"/>
<path d="M8471 9406 c-12 -18 -21 -36 -21 -39 0 -7 140 -110 144 -106 1 2 12
17 24 33 12 16 22 32 22 35 0 6 -105 86 -137 104 -6 4 -20 -7 -32 -27z"/>
<path d="M4067 9340 c-36 -27 -69 -55 -73 -61 -3 -6 7 -25 23 -41 l30 -30 70
54 70 54 -27 37 -27 37 -66 -50z"/>
<path d="M1439 9218 c-10 -18 -8 -24 6 -35 14 -9 22 -10 32 -2 19 16 16 37 -7
49 -16 8 -21 6 -31 -12z"/>
<path d="M8758 9176 l-28 -34 69 -61 68 -60 26 27 c15 16 27 33 27 38 0 9
-123 124 -132 124 -2 0 -15 -15 -30 -34z"/>
<path d="M1569 9139 c-9 -17 -8 -23 2 -30 22 -14 38 -10 49 11 8 15 6 21 -9
30 -27 14 -29 13 -42 -11z"/>
<path d="M3775 9090 l-65 -64 32 -33 32 -33 62 58 c34 31 62 62 63 68 0 5 -12
23 -28 38 l-30 29 -66 -63z"/>
<path d="M9025 8920 l-28 -29 57 -66 c32 -36 61 -65 65 -65 4 0 20 13 35 29
l29 30 -58 65 c-32 36 -61 66 -64 66 -4 0 -20 -13 -36 -30z"/>
<path d="M2019 8879 c-9 -17 -8 -23 2 -30 22 -14 38 -10 49 11 8 15 6 21 -9
30 -27 14 -29 13 -42 -11z"/>
<path d="M3524 8825 c-33 -36 -60 -69 -61 -73 -1 -4 14 -20 33 -36 l34 -28 23
28 c12 16 39 47 59 70 l37 41 -33 32 -33 32 -59 -66z"/>
<path d="M2150 8800 c-8 -15 -6 -21 9 -30 27 -14 29 -13 42 11 9 17 8 23 -2
30 -22 14 -38 10 -49 -11z"/>
<path d="M9263 8642 l-32 -27 50 -67 c28 -38 56 -68 63 -68 6 0 24 11 40 23
l29 23 -54 72 c-29 40 -56 72 -59 72 -3 0 -19 -13 -37 -28z"/>
<path d="M3291 8526 l-51 -74 36 -27 c20 -15 39 -23 43 -19 4 5 28 39 54 75
l47 67 -35 26 c-18 14 -36 26 -38 26 -3 0 -27 -33 -56 -74z"/>
<path d="M9477 8343 c-36 -23 -38 -26 -24 -46 7 -12 26 -44 42 -72 16 -27 30
-52 32 -54 3 -5 83 30 83 37 0 4 -62 110 -84 143 -10 15 -15 14 -49 -8z"/>
<path d="M9653 8023 c-18 -9 -33 -20 -33 -25 0 -7 67 -147 75 -156 1 -1 20 6
42 15 l40 18 -38 83 c-21 45 -42 82 -46 81 -4 0 -23 -8 -40 -16z"/>
<path d="M2927 7878 l-36 -83 22 -11 c59 -30 62 -29 92 43 16 38 32 73 37 80
7 8 -3 18 -31 32 -22 12 -42 21 -44 21 -3 0 -21 -37 -40 -82z"/>
<path d="M9798 7684 l-36 -15 25 -75 25 -74 -33 -27 c-107 -90 -85 -269 41
-333 54 -27 84 -31 138 -20 126 28 197 167 143 285 -31 70 -92 111 -185 127
-14 2 -26 23 -44 76 -13 39 -27 72 -30 71 -4 0 -23 -7 -44 -15z"/>
<path d="M2797 7536 c-15 -45 -27 -85 -27 -88 0 -7 57 -28 75 -28 6 0 22 33
34 73 13 39 26 77 28 83 2 7 -15 18 -40 27 l-44 15 -26 -82z"/>
<path d="M2716 7248 c-12 -36 -36 -161 -32 -165 5 -6 79 -23 83 -20 1 2 11 42
21 89 l19 86 -26 7 c-14 3 -34 8 -44 11 -9 3 -19 -1 -21 -8z"/>
<path d="M9996 6978 c-22 -5 -41 -10 -43 -12 -2 -2 1 -42 8 -90 13 -91 13 -91
69 -80 l32 7 -7 61 c-3 34 -9 75 -13 92 -7 29 -8 30 -46 22z"/>
<path d="M2646 6873 c-2 -10 -8 -50 -11 -89 l-7 -71 42 -7 c24 -4 44 -5 45 -4
2 2 8 41 13 88 12 94 9 100 -45 100 -22 0 -33 -5 -37 -17z"/>
<path d="M10032 6612 l-43 -3 2 -90 2 -89 48 0 49 0 -1 38 c-1 20 -4 62 -8 92
l-6 55 -43 -3z"/>
<path d="M2610 6430 l0 -90 49 0 48 0 2 90 2 90 -50 0 -51 0 0 -90z"/>
<path d="M9995 6235 c-2 -5 -6 -47 -8 -92 l-5 -83 49 0 49 0 0 74 c0 41 3 81
6 89 4 12 -5 16 -42 19 -26 2 -48 -1 -49 -7z"/>
<path d="M2652 6153 l-32 -4 6 -82 c3 -45 7 -87 9 -93 2 -7 19 -8 47 -5 l43 6
-3 55 c-4 87 -13 130 -25 128 -7 0 -27 -3 -45 -5z"/>
<path d="M9950 5808 c-6 -40 -12 -79 -13 -87 -2 -15 29 -28 68 -30 19 -1 22 8
34 86 14 96 11 103 -46 103 -31 0 -31 0 -43 -72z"/>
<path d="M2702 5787 c-27 -5 -42 -13 -39 -20 2 -7 10 -44 17 -83 l13 -72 -41
-36 c-141 -128 -56 -356 132 -356 201 0 285 265 117 371 -25 16 -62 32 -82 35
-36 6 -36 6 -49 78 -16 94 -16 94 -68 83z"/>
<path d="M9872 5446 c-12 -46 -22 -86 -22 -89 0 -6 58 -27 75 -27 10 0 55 137
55 167 0 6 -12 13 -27 16 -16 3 -35 8 -43 12 -13 4 -20 -12 -38 -79z"/>
<path d="M9774 5132 c-10 -26 -23 -62 -31 -81 -7 -18 -13 -35 -13 -37 0 -2 18
-13 40 -24 l40 -21 11 28 c6 16 21 55 34 89 l23 61 -44 16 -43 16 -17 -47z"/>
<path d="M2893 5077 c-18 -5 -33 -15 -33 -21 0 -10 58 -156 65 -164 2 -2 76
27 82 32 6 5 -64 160 -73 162 -5 1 -24 -3 -41 -9z"/>
<path d="M3039 4740 l-36 -19 41 -80 c22 -45 45 -81 50 -81 5 0 24 9 42 21
l34 21 -42 79 c-24 43 -45 79 -48 79 -3 -1 -21 -9 -41 -20z"/>
<path d="M3223 4419 c-18 -12 -33 -24 -33 -27 0 -9 94 -152 100 -152 3 0 20
13 37 28 l33 27 -48 72 c-26 40 -49 73 -52 73 -3 0 -20 -10 -37 -21z"/>
<path d="M9226 4146 l-55 -74 34 -26 c18 -14 36 -26 38 -26 6 0 107 135 107
143 0 2 -15 16 -34 31 l-34 25 -56 -73z"/>
<path d="M3434 4118 c-16 -12 -31 -23 -33 -25 -5 -4 110 -143 118 -143 4 0 20
13 36 30 l28 29 -53 66 c-30 36 -57 65 -60 65 -4 0 -20 -10 -36 -22z"/>
<path d="M10502 3984 c-10 -20 -8 -25 9 -35 17 -8 23 -7 35 8 18 25 18 28 -10
41 -20 9 -25 7 -34 -14z"/>
<path d="M8988 3866 l-57 -63 33 -32 33 -32 62 68 62 68 -31 28 c-17 15 -34
27 -38 27 -4 0 -33 -29 -64 -64z"/>
<path d="M10634 3908 c-4 -15 -1 -25 11 -35 16 -11 20 -10 33 9 14 19 13 22
-3 34 -26 19 -33 18 -41 -8z"/>
<path d="M3677 3842 c-15 -15 -27 -32 -27 -38 0 -5 27 -36 60 -69 l60 -59 32
32 33 32 -66 65 -65 66 -27 -29z"/>
<path d="M8730 3622 c-36 -31 -65 -59 -65 -62 0 -3 11 -20 25 -38 l26 -32 67
56 c37 30 67 60 67 65 0 5 -12 22 -27 38 l-28 29 -65 -56z"/>
<path d="M11084 3648 c-4 -15 -1 -25 11 -35 16 -11 20 -10 33 9 14 19 13 22
-3 34 -26 19 -33 18 -41 -8z"/>
<path d="M3946 3589 c-14 -17 -26 -34 -26 -38 0 -4 31 -32 69 -64 l68 -56 27
37 27 37 -33 28 c-18 16 -49 42 -70 58 l-36 29 -26 -31z"/>
<path d="M11215 3569 c-7 -21 7 -39 32 -39 18 0 27 41 12 51 -23 14 -37 10
-44 -12z"/>
<path d="M8444 3399 c-38 -28 -71 -52 -73 -54 -2 -3 18 -37 45 -73 2 -2 37 20
78 49 48 33 73 56 68 63 -5 6 -18 23 -29 38 l-20 27 -69 -50z"/>
<path d="M12235 3329 c56 -49 50 -73 -57 -260 -51 -89 -103 -172 -115 -185
-24 -26 -78 -33 -114 -14 -10 6 -19 7 -19 3 0 -8 520 -313 533 -313 8 0 121
200 115 205 -2 2 -24 -12 -48 -32 -61 -48 -99 -63 -164 -63 -45 0 -70 8 -137
43 -45 23 -82 47 -81 52 2 16 116 215 124 215 4 0 23 -14 42 -31 45 -39 54
-82 34 -155 -9 -30 -13 -56 -9 -58 7 -5 193 315 187 321 -2 3 -22 -13 -45 -36
-48 -48 -100 -65 -153 -50 -21 5 -40 14 -43 20 -4 5 18 54 49 107 86 150 71
141 152 92 38 -23 80 -52 92 -64 50 -45 68 -115 51 -195 -6 -29 -9 -55 -6 -57
3 -3 30 37 60 88 42 70 52 96 44 104 -20 18 -504 294 -516 294 -7 0 4 -14 24
-31z"/>
<path d="M11665 3309 c-7 -21 7 -39 32 -39 18 0 27 41 12 51 -23 14 -37 10
-44 -12z"/>
<path d="M11802 3239 c-16 -25 -16 -26 9 -40 17 -9 23 -8 30 2 14 22 11 37 -9
48 -14 7 -21 5 -30 -10z"/>
<path d="M8185 3233 c-11 -8 -46 -28 -77 -44 l-57 -29 22 -40 c12 -22 24 -40
27 -40 3 0 40 20 82 45 l77 45 -20 35 c-27 45 -30 46 -54 28z"/>
<path d="M7810 3044 c-41 -18 -76 -37 -78 -43 -2 -5 4 -25 12 -45 l15 -36 83
36 c45 19 84 37 86 39 3 3 -36 86 -41 84 -1 -1 -36 -16 -77 -35z"/>
<path d="M4876 3005 c-9 -21 -16 -40 -16 -44 0 -5 88 -44 151 -66 12 -5 21 5
33 36 9 23 16 42 14 43 -2 2 -106 44 -155 63 -7 3 -19 -11 -27 -32z"/>
<path d="M7225 3006 c-62 -27 -107 -87 -120 -158 -6 -32 -11 -37 -39 -40 -30
-3 -31 -4 -28 -48 2 -24 4 -46 6 -48 2 -2 19 1 37 6 32 8 37 5 79 -38 82 -83
185 -92 278 -23 36 27 66 80 76 136 5 28 14 41 34 49 15 7 28 13 30 14 6 4
-21 84 -29 84 -4 0 -19 -4 -32 -9 -21 -8 -29 -4 -58 26 -19 19 -48 42 -66 49
-41 18 -129 17 -168 0z"/>
<path d="M5221 2879 c-6 -18 -11 -37 -11 -44 0 -9 118 -52 164 -59 14 -2 36
85 23 89 -58 17 -156 45 -160 45 -3 0 -10 -14 -16 -31z"/>
<path d="M5573 2776 l-10 -44 41 -11 c23 -5 65 -13 94 -17 43 -5 52 -4 52 8 0
9 3 29 6 45 l6 29 -78 13 c-42 7 -82 15 -89 17 -7 3 -16 -13 -22 -40z"/>
<path d="M6780 2764 c-8 -1 -36 -6 -62 -9 l-48 -6 0 -46 0 -45 58 6 c137 16
135 15 128 48 -3 17 -6 37 -6 44 0 13 -31 17 -70 8z"/>
<path d="M5940 2739 c0 -13 -3 -34 -6 -46 -6 -23 -10 -22 134 -38 l52 -6 0 51
0 50 -52 0 c-29 0 -70 3 -90 6 -35 6 -38 5 -38 -17z"/>
<path d="M6307 2733 c-4 -3 -7 -23 -7 -44 0 -35 2 -37 38 -40 20 -2 63 -2 95
-1 l57 4 0 44 0 44 -88 0 c-49 0 -92 -3 -95 -7z"/>
<path d="M3922 2228 c-18 -18 -14 -36 9 -43 34 -11 56 36 23 49 -20 8 -18 8
-32 -6z"/>
<path d="M3842 2089 c-11 -18 -11 -23 5 -35 25 -18 28 -18 40 9 9 19 8 26 -8
35 -24 15 -22 16 -37 -9z"/>
<path d="M3582 1639 c-15 -23 -15 -22 14 -37 18 -10 23 -8 32 12 8 18 6 25 -9
34 -24 15 -22 16 -37 -9z"/>
<path d="M3506 1508 c-14 -20 -14 -23 6 -36 19 -14 22 -13 34 3 18 24 18 28
-6 42 -16 11 -21 9 -34 -9z"/>
<path d="M3252 1068 c-18 -18 -15 -36 8 -48 15 -8 21 -6 30 11 7 11 10 22 8
23 -2 1 -10 7 -19 14 -12 9 -18 9 -27 0z"/>
<path d="M3170 925 c-10 -12 -10 -18 0 -30 7 -8 18 -15 26 -15 19 0 29 41 13
51 -19 12 -25 11 -39 -6z"/>
<path d="M2762 639 c-49 -24 -72 -62 -72 -114 0 -59 25 -97 147 -227 101 -106
143 -164 143 -197 0 -5 -12 -23 -26 -40 -49 -59 -150 -36 -231 52 -64 69 -96
140 -97 212 -1 33 2 72 7 88 4 15 4 27 0 27 -9 -1 -133 -215 -133 -229 0 -5
14 -2 31 6 29 15 35 15 64 -1 17 -9 49 -40 71 -67 44 -57 80 -86 142 -118 153
-78 305 15 268 164 -7 31 -36 67 -132 166 -163 169 -178 201 -117 249 51 40
137 16 213 -60 58 -58 73 -94 80 -190 l5 -85 51 85 c51 84 54 101 15 81 -29
-16 -42 -7 -90 59 -96 132 -238 191 -339 139z"/>
</g>
</svg>
