<?xml version="1.0" standalone="no"?>
<!DOCTYPE svg PUBLIC "-//W3C//DTD SVG 20010904//EN"
 "http://www.w3.org/TR/2001/REC-SVG-20010904/DTD/svg10.dtd">
<svg version="1.0" xmlns="http://www.w3.org/2000/svg"
 width="1280.000000pt" height="1167.000000pt" viewBox="0 0 1280.000000 1167.000000"
 preserveAspectRatio="xMidYMid meet">
<metadata>
Created by potrace 1.15, written by Peter Selinger 2001-2017
</metadata>
<g transform="translate(0.000000,1167.000000) scale(0.100000,-0.100000)"
fill="#000000" stroke="none">
<path d="M2442 11658 c-17 -17 -15 -35 13 -103 14 -34 25 -80 25 -106 l0 -47
-107 -80 c-119 -87 -179 -124 -235 -141 -33 -11 -41 -9 -94 18 -65 36 -130 40
-210 16 -27 -8 -52 -15 -56 -15 -5 0 -8 20 -8 45 0 45 -17 95 -32 95 -19 0
-129 -62 -163 -91 -37 -33 -65 -77 -65 -102 0 -9 15 -17 38 -20 109 -18 192
-61 192 -101 0 -21 -45 -72 -105 -118 -131 -103 -190 -184 -183 -252 l3 -31
70 1 c39 1 102 5 142 9 71 8 72 7 102 -23 35 -34 38 -59 16 -106 -20 -42 -70
-69 -175 -96 -47 -12 -104 -32 -126 -45 -39 -21 -51 -22 -155 -18 -64 3 -140
0 -172 -6 -88 -16 -173 -58 -213 -104 -57 -68 -44 -93 58 -107 35 -5 68 -10
75 -10 6 0 19 -7 27 -16 41 -40 -4 -127 -72 -140 -20 -4 -88 -2 -151 5 -94 10
-115 10 -123 -1 -5 -7 -6 -60 -2 -118 l6 -106 -52 -32 c-58 -36 -112 -51 -181
-52 -87 0 -158 -20 -184 -52 -56 -66 -12 -112 105 -111 71 1 136 22 218 72 61
38 104 40 137 6 29 -28 31 -54 10 -99 -21 -44 -95 -87 -245 -141 -160 -58
-218 -87 -255 -125 l-30 -31 33 -30 c45 -41 97 -39 213 7 102 39 132 41 137 5
9 -62 -29 -94 -148 -127 -144 -39 -170 -65 -170 -171 l0 -72 98 33 c205 69
236 97 336 297 44 88 79 172 86 206 6 32 13 68 16 80 2 12 15 33 27 45 13 13
50 55 83 93 184 218 310 336 431 406 43 25 61 30 105 27 l53 -3 3 -36 c4 -49
-27 -73 -113 -89 -81 -15 -115 -40 -115 -83 0 -27 8 -37 48 -64 99 -67 275
-100 465 -89 l107 7 12 -28 c19 -47 16 -181 -7 -245 -10 -32 -24 -58 -29 -58
-5 0 -29 -9 -52 -20 -51 -25 -84 -81 -62 -107 17 -21 70 -43 102 -43 32 0 96
-76 96 -113 0 -14 -12 -43 -26 -64 -32 -47 -28 -95 10 -154 l27 -40 -15 -112
c-8 -61 -18 -148 -22 -191 -6 -67 -11 -83 -32 -103 -45 -41 -163 -25 -239 33
-42 32 -42 59 -3 142 45 96 37 144 -30 172 -29 12 -37 10 -103 -25 -40 -21
-85 -41 -100 -44 -28 -6 -29 -7 -32 -87 -3 -90 -14 -120 -51 -135 -14 -5 -83
-13 -152 -18 -127 -9 -146 -13 -190 -34 -48 -23 -69 -109 -34 -140 9 -8 43
-25 74 -37 98 -36 105 -75 29 -155 -68 -71 -76 -109 -39 -191 49 -111 18 -238
-87 -351 -59 -65 -161 -133 -197 -133 -23 0 -48 55 -48 107 0 26 5 82 12 125
14 97 3 129 -56 158 -55 26 -63 25 -71 -8 -9 -43 -59 -97 -128 -138 -112 -66
-138 -87 -163 -129 -33 -58 -30 -113 9 -136 1 -1 59 -4 129 -8 140 -8 158 -15
158 -66 0 -25 -9 -42 -40 -71 -22 -22 -42 -52 -45 -69 -6 -29 -4 -31 87 -75
80 -38 104 -45 169 -48 73 -4 78 -3 110 26 19 17 44 52 56 79 70 159 83 181
109 200 71 49 146 55 244 19 96 -36 219 -90 220 -97 1 -19 -123 -191 -143
-198 -37 -14 -51 -39 -51 -94 -1 -66 19 -117 46 -117 11 0 35 15 54 34 35 35
43 70 24 106 -18 34 138 247 294 403 48 48 102 73 178 82 l56 7 12 -38 c7 -22
14 -93 17 -159 9 -217 -44 -407 -144 -515 -67 -72 -102 -85 -219 -77 -106 8
-113 1 -123 -118 -11 -111 -27 -135 -102 -152 -109 -24 -236 -42 -329 -45 -80
-3 -103 -8 -147 -31 -76 -39 -148 -122 -179 -205 -4 -9 -190 44 -204 58 -27
27 -35 92 -16 129 33 62 31 108 -9 226 -31 91 -38 128 -42 222 -6 121 -14 140
-57 129 -27 -7 -36 -30 -36 -103 0 -91 -113 -374 -208 -518 -21 -33 -60 -84
-87 -113 l-48 -53 -2 -142 c-2 -78 -8 -169 -15 -202 -20 -97 -19 -253 3 -295
17 -31 20 -78 28 -430 8 -331 10 -651 5 -1045 0 -38 1 -97 3 -130 1 -33 0
-170 -5 -305 -5 -184 -4 -251 5 -268 10 -18 9 -25 -4 -38 -87 -87 -59 -256 52
-313 33 -17 94 -13 133 7 39 21 80 89 80 133 0 20 15 43 55 83 52 53 57 56
105 56 70 0 103 -20 140 -85 50 -87 70 -98 160 -91 41 3 109 15 150 26 139 37
193 37 316 0 124 -37 189 -67 221 -102 l23 -24 -56 -74 c-234 -312 -593 -674
-1094 -1104 l-205 -175 -53 -1 c-93 0 -162 -48 -162 -112 0 -51 16 -68 62 -68
58 0 120 33 171 90 23 26 139 131 257 232 501 429 799 729 1064 1070 37 48 80
95 96 105 16 9 34 27 41 40 13 24 38 29 97 17 28 -6 32 -11 41 -58 20 -99 33
-330 26 -476 -6 -128 -41 -481 -47 -484 -2 -1 -27 -13 -57 -26 -63 -29 -137
-98 -236 -220 -82 -102 -136 -148 -207 -175 -37 -15 -53 -26 -53 -39 0 -33 28
-41 78 -22 82 31 138 78 240 200 56 67 121 138 147 159 45 37 106 64 117 53 3
-3 11 -56 17 -118 10 -99 13 -113 30 -116 11 -3 26 4 33 14 18 25 16 122 -3
204 -15 62 -15 77 0 201 41 345 43 617 4 863 -9 60 -9 87 0 122 15 55 15 107
1 157 -9 34 -7 41 21 80 17 24 54 61 83 82 297 222 894 710 1139 931 113 103
408 394 408 404 0 4 10 10 23 14 12 3 54 33 92 66 112 97 173 118 250 86 l35
-15 0 67 c1 107 19 135 203 317 89 88 186 186 214 217 29 31 62 59 72 63 24 7
71 61 71 80 0 7 37 37 82 66 46 30 109 80 140 112 51 50 63 57 98 57 l40 0 1
-87 c0 -49 5 -115 10 -148 5 -33 13 -305 18 -605 5 -300 15 -718 21 -930 12
-356 10 -541 -6 -839 -4 -71 -2 -149 6 -205 7 -49 12 -142 11 -206 0 -63 0
-243 0 -400 0 -181 -5 -305 -12 -340 -11 -51 -17 -248 -19 -657 -1 -94 4 -227
11 -295 14 -147 8 -263 -19 -338 l-19 -55 -316 2 c-342 2 -585 15 -1202 68
-699 59 -957 75 -1220 75 -196 0 -184 -5 -230 95 l-27 60 -13 -50 c-7 -27 -23
-72 -35 -99 -24 -57 -35 -124 -26 -159 5 -23 9 -24 128 -30 271 -13 632 -118
851 -248 l68 -40 112 11 c173 18 606 27 869 18 131 -4 430 -19 665 -33 236
-14 554 -32 708 -40 357 -19 612 -36 1275 -85 1232 -90 1584 -114 1955 -130
285 -12 281 -12 510 -56 99 -19 221 -37 270 -40 83 -6 97 -4 179 25 102 35
126 37 228 15 125 -27 337 -6 788 78 l275 50 300 8 c336 8 333 7 771 110 418
98 451 103 684 105 l205 1 50 50 c58 57 85 124 85 210 0 45 -4 56 -23 68 -36
24 -102 45 -196 61 -215 37 -242 58 -261 197 -8 68 -9 101 -1 121 16 42 13 65
-9 77 -64 34 -101 -93 -69 -240 9 -43 8 -54 -8 -81 -26 -45 -76 -69 -146 -69
-88 0 -146 29 -192 95 -20 30 -68 79 -106 110 -38 30 -100 80 -138 110 -45 36
-74 53 -85 49 -36 -14 -15 -44 82 -120 119 -95 166 -138 203 -188 l29 -38 -37
-29 c-91 -73 -354 -101 -510 -54 l-52 15 -48 -30 c-88 -56 -170 -75 -328 -75
-187 0 -227 14 -261 91 -13 30 -28 54 -34 54 -21 0 -21 -29 -1 -76 25 -55 25
-54 7 -54 -8 0 -16 -6 -19 -14 -4 -9 -35 -15 -104 -20 -106 -7 -364 -39 -698
-85 -232 -32 -240 -32 -265 28 -7 17 -17 31 -22 31 -5 0 -28 -15 -51 -34 -105
-85 -158 -96 -518 -106 -162 -5 -324 -14 -359 -20 -53 -10 -65 -9 -69 2 -2 7
-18 26 -35 43 l-31 30 1 290 c0 196 8 382 22 573 27 343 29 655 6 832 -19 148
-20 121 4 250 30 161 38 185 79 220 30 27 42 31 71 26 87 -14 207 -97 260
-181 29 -45 121 -145 134 -145 5 0 11 7 15 15 3 10 -14 37 -51 75 -46 49 -56
65 -56 94 0 32 5 38 42 57 40 20 51 21 188 15 94 -5 162 -3 194 4 46 10 49 9
72 -15 12 -14 28 -25 34 -25 6 0 10 -58 10 -168 0 -173 4 -192 41 -192 43 0
49 24 49 182 0 166 6 187 63 225 72 47 165 38 316 -33 51 -24 95 -44 97 -44 2
0 4 6 4 14 0 21 47 74 81 91 18 10 58 15 112 15 l84 0 32 -40 c27 -34 38 -40
70 -40 20 0 69 11 108 24 66 23 84 24 294 24 191 0 233 -3 284 -19 97 -30 137
-63 183 -151 l40 -76 -25 -62 c-27 -67 -25 -93 8 -88 15 2 27 17 40 52 26 68
30 71 80 46 99 -50 187 -118 381 -292 122 -110 235 -194 321 -238 64 -34 68
-37 101 -110 48 -106 49 -112 31 -174 -21 -72 -17 -175 8 -190 33 -21 51 4 58
80 6 72 15 111 31 131 15 19 90 -13 205 -89 112 -74 148 -83 148 -38 0 21 -19
37 -106 96 -58 39 -128 79 -155 88 -75 27 -75 27 -111 112 l-35 79 18 65 c14
51 19 125 24 350 4 157 11 294 15 305 5 11 18 29 30 41 12 11 24 27 27 34 9
27 80 -7 168 -80 88 -73 122 -85 128 -44 2 16 -16 38 -75 89 -91 78 -140 106
-197 110 -49 4 -79 36 -101 109 -21 69 -19 113 9 171 27 60 34 65 108 89 54
18 59 18 127 1 111 -27 154 -10 139 57 -13 62 -42 94 -114 129 -36 18 -71 40
-77 48 -7 9 -38 38 -69 65 l-58 48 6 142 c9 197 -13 291 -89 382 -18 22 -41
58 -51 81 -18 40 -18 43 0 79 24 48 61 69 170 100 137 37 176 65 198 140 6 19
2 23 -28 28 -70 13 -162 49 -212 82 -60 40 -102 109 -111 183 l-6 50 104 3
c87 3 103 5 100 18 -2 8 -6 44 -9 80 -4 61 -2 68 31 116 l34 52 -54 4 c-29 3
-59 10 -64 15 -27 27 -41 279 -20 351 15 51 55 112 100 157 23 21 41 42 41 46
0 3 -29 20 -64 37 -110 53 -129 102 -67 180 32 42 51 76 51 91 0 6 -22 22 -50
36 -84 43 -80 99 12 158 29 19 63 45 75 58 21 23 22 26 7 68 -20 58 -12 88 46
176 43 67 69 143 56 164 -3 5 -40 14 -82 20 -125 21 -168 47 -180 109 -10 51
21 116 96 199 81 89 102 129 108 206 5 65 -2 78 -62 110 -38 20 -56 22 -226
23 -148 0 -192 4 -221 17 -55 25 -63 39 -45 81 18 43 56 68 158 102 105 35
152 88 112 128 -18 18 -30 20 -132 16 -52 -1 -79 2 -96 14 l-24 15 19 51 c35
92 20 163 -47 218 -21 17 -96 62 -166 99 -93 48 -141 80 -173 114 l-45 48 0
188 c1 163 3 195 21 243 11 30 22 62 25 70 4 11 -13 21 -62 38 -164 57 -280
178 -320 332 -16 65 -16 242 1 282 5 13 0 19 -22 24 -58 14 -148 67 -195 116
-40 41 -46 53 -38 68 22 41 11 93 -41 196 -64 127 -70 177 -39 319 37 172 51
266 44 287 -3 12 -19 41 -35 66 -41 64 -39 102 9 150 30 31 52 42 119 60 244
64 511 192 863 412 116 72 173 101 225 115 83 22 125 57 125 104 0 85 -163 66
-243 -29 -42 -49 -343 -234 -553 -339 -206 -102 -448 -191 -533 -194 -34 -1
-41 5 -73 62 -13 24 -24 31 -48 31 l-30 0 0 -60 c0 -34 -6 -73 -14 -88 -32
-61 -46 -66 -326 -121 -581 -113 -871 -221 -1145 -426 -66 -50 -75 -53 -158
-64 -106 -14 -219 -43 -432 -111 -88 -28 -185 -54 -216 -57 -91 -9 -92 -7 -90
349 l1 108 33 13 c133 56 489 163 787 237 827 207 1153 321 1515 530 102 59
182 114 290 202 60 48 75 65 75 87 0 31 -16 51 -42 51 -10 0 -62 -35 -116 -78
-227 -181 -486 -316 -844 -443 -180 -64 -336 -108 -784 -223 -452 -116 -647
-172 -824 -237 -119 -43 -144 -49 -215 -49 -52 0 -127 -11 -215 -31 -74 -16
-169 -34 -210 -39 -65 -7 -78 -12 -102 -39 -35 -39 -35 -56 0 -69 54 -22 81
-23 133 -8 108 31 286 69 350 74 l66 4 7 -42 c7 -48 -2 -135 -17 -165 -7 -12
-10 -85 -9 -187 l3 -168 -34 0 c-21 0 -58 -15 -100 -41 -45 -26 -113 -53 -200
-79 -73 -21 -271 -86 -442 -145 -430 -147 -641 -206 -852 -240 -48 -8 -42 -23
-63 150 -6 50 -16 107 -22 128 -11 37 -10 39 33 83 68 71 150 122 324 202 88
40 198 93 245 118 95 49 213 134 236 170 20 30 10 62 -22 70 -19 5 -38 -5 -92
-49 -89 -72 -130 -96 -367 -206 -235 -109 -311 -157 -397 -250 -71 -76 -93
-88 -298 -161 -150 -53 -325 -99 -720 -190 -631 -145 -707 -178 -1385 -603
-148 -92 -279 -177 -289 -187 -17 -16 -18 -23 -8 -45 16 -36 46 -32 122 17
115 73 533 333 615 383 256 154 492 241 930 340 468 105 814 204 938 267 22
11 41 17 44 14 8 -7 33 -186 33 -231 0 -29 -11 -56 -40 -101 -39 -61 -39 -62
-117 -82 -92 -25 -159 -36 -348 -57 -301 -34 -407 -62 -579 -150 -150 -77
-270 -151 -569 -348 l-257 -169 -88 -10 c-191 -20 -404 -81 -590 -168 -73 -35
-94 -40 -128 -35 -53 8 -119 -8 -216 -50 -101 -45 -115 -44 -134 0 -18 45 -8
88 41 165 19 30 35 57 35 60 0 3 -54 6 -119 8 -101 3 -125 0 -162 -16 -160
-72 -303 -98 -442 -81 -90 10 -186 50 -226 93 l-23 25 -38 -40 c-34 -36 -41
-39 -91 -38 -85 0 -90 11 -122 269 -15 118 -27 235 -27 260 0 62 24 161 62
252 38 93 48 92 103 -7 20 -36 44 -71 54 -78 9 -6 27 -27 40 -44 12 -18 42
-56 66 -84 23 -28 45 -62 48 -77 3 -15 17 -58 31 -97 l26 -70 37 2 c26 2 57
16 98 45 65 46 88 49 192 26 43 -9 54 -16 64 -40 12 -30 54 -58 86 -58 35 0
84 40 102 83 28 64 60 71 193 41 223 -51 286 -42 386 51 61 57 61 58 -11 70
-23 4 -76 32 -134 72 l-97 66 -110 -54 c-60 -30 -121 -63 -135 -75 -36 -28
-106 -53 -132 -47 -11 3 -42 -4 -70 -17 -48 -23 -49 -23 -124 -7 -42 10 -96
17 -122 17 -27 0 -53 6 -63 15 -9 9 -52 22 -94 30 -80 15 -80 15 -158 110 -38
45 -46 66 -41 108 4 26 10 37 22 37 9 0 28 7 43 14 18 10 77 17 170 21 296 13
354 38 366 154 4 49 4 49 -33 61 -71 23 -133 9 -241 -55 -82 -49 -109 -60
-171 -68 -56 -8 -85 -8 -121 2 -215 57 -383 242 -386 426 -2 111 47 156 244
226 186 65 241 102 274 181 28 65 22 83 -31 106 -27 11 -83 29 -126 41 -96 26
-129 42 -156 77 -48 62 -12 106 102 123 89 14 197 36 217 45 12 5 23 -8 44
-51 29 -60 103 -170 129 -191 11 -9 42 -8 143 7 71 11 252 29 401 41 150 11
279 23 287 26 9 4 38 -26 84 -89 70 -94 107 -130 170 -161 32 -16 34 -16 97
14 83 40 177 126 210 194 25 51 56 174 48 189 -11 19 -95 6 -157 -25 l-65 -32
-53 26 c-90 43 -132 55 -353 93 -49 9 -122 25 -161 37 l-72 20 -67 -22 c-91
-30 -168 -25 -202 14 -32 37 -31 94 3 157 15 26 24 54 21 62 -3 8 -28 22 -56
32 -51 16 -81 45 -81 75 0 20 44 62 87 84 72 36 149 17 319 -78 55 -30 118
-62 141 -70 40 -14 44 -14 95 14 29 16 106 51 170 79 178 76 258 135 303 221
15 29 15 30 -12 37 -71 19 -145 8 -243 -37 -95 -43 -177 -57 -200 -34 -17 17
23 76 87 126 76 60 100 92 108 144 5 32 1 47 -24 87 -60 93 -140 116 -326 97
-174 -19 -278 -17 -362 5 -88 23 -104 15 -148 -70 -16 -31 -38 -63 -49 -71
-32 -22 -107 -17 -193 15 -43 16 -96 31 -118 35 -36 6 -106 -7 -158 -29 -26
-11 -47 49 -47 137 -1 180 -73 341 -128 286z m43 -732 c68 -31 115 -73 115
-100 0 -34 -41 -89 -80 -108 -47 -24 -121 -23 -170 2 -51 26 -74 69 -67 129
10 94 96 127 202 77z m457 -101 c47 -32 80 -100 76 -157 -3 -39 -6 -43 -40
-56 -47 -18 -115 -9 -160 22 -32 21 -33 24 -33 93 0 62 3 75 24 97 32 34 84
35 133 1z m-685 -457 l81 -40 -9 -31 c-17 -60 -74 -88 -140 -68 -56 17 -105
64 -113 107 -4 19 -10 42 -12 49 -7 17 50 35 86 27 14 -3 62 -23 107 -44z
m-269 5 c28 -24 29 -49 5 -103 -24 -54 -38 -111 -59 -244 -8 -55 -21 -115 -29
-133 l-15 -35 -29 22 c-71 50 -103 109 -117 216 -6 48 -3 58 41 142 54 106
100 152 149 152 19 0 43 -8 54 -17z m8776 -98 c36 -116 39 -285 7 -428 -25
-109 -83 -251 -224 -548 -30 -64 -65 -144 -77 -177 -20 -55 -28 -65 -74 -90
-59 -34 -126 -102 -155 -160 -27 -52 -57 -175 -71 -282 -20 -160 -20 -160 -43
-160 -36 -1 -105 -37 -206 -109 -114 -81 -146 -98 -198 -107 -69 -11 -175 52
-166 98 2 13 -2 51 -10 86 -12 52 -12 64 -1 73 10 8 13 35 12 98 -1 47 3 115
9 151 10 58 9 68 -9 97 -10 18 -37 47 -59 65 -28 24 -48 56 -75 118 l-36 85
-8 290 c-7 249 -11 302 -30 373 l-22 83 28 22 c121 98 352 219 534 280 144 49
346 99 590 146 113 22 214 42 225 44 11 3 25 5 31 6 6 0 18 -24 28 -54z
m-9134 -15 c31 -17 27 -74 -7 -103 -15 -12 -43 -37 -64 -54 -44 -40 -111 -47
-129 -14 -25 48 9 136 68 174 29 18 96 16 132 -3z m7625 -537 c12 -50 19 -149
25 -378 l9 -310 -29 -64 c-20 -41 -30 -79 -30 -109 0 -40 -5 -50 -42 -89 -32
-31 -51 -43 -73 -43 -63 0 -102 -40 -177 -179 -25 -46 -31 -51 -62 -51 -22 0
-45 9 -61 23 -23 19 -27 31 -27 73 1 27 12 85 26 129 14 44 26 85 26 90 0 6
-48 67 -106 135 -195 229 -262 342 -272 456 -6 78 9 121 56 167 34 33 61 44
260 106 192 60 293 86 402 104 58 10 58 10 75 -60z m-1061 -325 c3 -13 6 -50
6 -83 0 -96 -30 -146 -171 -287 -126 -127 -173 -194 -185 -262 -10 -62 -18
-71 -106 -128 -94 -61 -138 -118 -138 -182 0 -73 38 -90 134 -61 55 17 126 20
126 6 0 -20 -116 -114 -223 -180 -135 -84 -186 -126 -224 -187 -30 -48 -38
-50 -123 -30 -14 4 -31 2 -39 -3 -26 -17 -7 -55 80 -162 12 -15 23 -47 26 -71
5 -41 3 -45 -23 -57 -42 -20 -170 -25 -224 -9 -40 12 -45 18 -48 45 -2 20 8
54 28 93 17 34 30 63 28 65 -34 28 -108 33 -152 10 -15 -8 -54 -15 -86 -15
-58 0 -58 0 -65 33 -11 48 -43 100 -76 122 -16 11 -34 35 -40 53 -6 17 -15 32
-20 32 -5 0 -23 15 -39 33 -28 31 -29 36 -30 124 0 68 -5 107 -20 145 -11 29
-16 55 -11 58 4 3 11 92 14 199 6 191 7 195 34 240 32 50 27 49 198 81 154 29
388 98 675 197 401 139 602 201 656 202 25 1 33 -4 38 -21z m-6018 -95 c25
-16 38 -46 53 -121 23 -111 11 -171 -38 -197 -46 -23 -61 -20 -61 15 0 21 -12
42 -46 77 l-45 48 4 80 c2 44 9 90 16 103 11 21 17 23 54 16 23 -3 51 -13 63
-21z m4324 -465 c-1 -13 -6 -53 -14 -89 -10 -53 -22 -78 -59 -125 -46 -59 -77
-119 -77 -149 0 -9 -11 -31 -24 -48 -33 -43 -66 -116 -66 -148 0 -14 13 -45
29 -70 26 -42 28 -49 17 -81 -7 -19 -31 -61 -54 -93 -23 -32 -42 -64 -42 -71
0 -14 -49 -64 -63 -64 -12 0 -100 -70 -165 -132 l-53 -50 35 -71 c39 -81 94
-127 153 -127 44 0 83 -19 83 -42 0 -10 -7 -35 -15 -55 -8 -19 -15 -42 -15
-49 0 -8 -19 -40 -43 -71 -24 -32 -63 -91 -86 -132 -84 -143 -135 -180 -273
-196 -70 -8 -138 -41 -158 -77 -21 -39 -5 -62 46 -66 21 -1 49 -5 62 -7 32 -8
155 -134 159 -165 2 -14 8 -26 14 -28 17 -7 9 -57 -15 -93 -14 -20 -28 -49
-32 -65 -10 -38 -77 -141 -150 -231 -85 -103 -96 -123 -81 -154 9 -17 22 -25
45 -27 20 -2 32 -9 32 -18 0 -11 -15 -14 -66 -14 -50 0 -70 -4 -79 -16 -11
-15 -24 -16 -141 -5 -96 9 -136 17 -155 31 -14 10 -45 22 -69 27 -37 7 -45 14
-67 55 -22 41 -26 67 -32 182 -4 75 -10 138 -13 141 -4 4 -53 13 -110 21 -177
23 -219 34 -228 59 -16 41 -69 92 -119 114 -28 11 -53 26 -56 31 -3 6 -17 10
-31 10 -31 0 -144 75 -144 96 0 8 8 29 17 47 12 23 18 66 20 154 4 114 3 122
-16 132 -35 19 -51 -10 -51 -94 l0 -73 -74 -60 c-88 -71 -200 -142 -278 -176
l-57 -25 -55 60 c-62 66 -126 188 -153 289 -22 80 -24 324 -4 415 24 108 62
218 111 321 l48 100 99 46 c212 100 374 147 578 167 83 8 93 7 143 -15 252
-111 453 -368 522 -667 19 -83 22 -116 17 -215 -8 -183 -62 -324 -172 -450
-45 -52 -53 -66 -46 -85 15 -41 53 -34 100 19 138 157 202 328 202 545 1 120
-11 196 -47 307 -83 257 -290 503 -511 607 -24 11 -43 23 -43 26 0 21 566 382
745 475 188 98 253 114 660 164 88 11 201 30 250 43 116 31 115 31 115 5z
m2974 -40 c19 -26 20 -67 5 -121 -7 -25 -15 -37 -24 -34 -21 9 -53 -20 -60
-54 -5 -21 -15 -34 -35 -40 -18 -7 -34 -24 -45 -50 -15 -32 -23 -39 -46 -39
-15 0 -31 -5 -34 -10 -10 -16 -23 -2 -34 37 -7 26 -6 56 4 110 16 81 45 133
77 133 11 0 39 20 64 45 35 36 50 45 78 45 25 0 39 -6 50 -22z m-7292 -85 c14
-12 18 -31 18 -83 0 -37 12 -159 26 -271 14 -112 26 -248 27 -301 2 -93 1 -99
-24 -123 -16 -16 -41 -29 -66 -32 l-39 -5 -12 53 c-27 124 -18 624 13 757 6
26 31 29 57 5z m7271 -302 c15 -75 15 -87 2 -101 -19 -21 -19 -48 1 -95 9 -23
15 -67 15 -114 0 -42 4 -93 10 -114 8 -31 14 -38 32 -35 21 3 22 7 19 69 -4
65 -4 66 27 79 44 18 66 -5 85 -90 9 -37 20 -78 24 -91 9 -23 10 -22 38 18 29
43 72 67 99 57 19 -8 19 -32 0 -78 -9 -20 -15 -59 -14 -86 1 -28 -1 -53 -4
-56 -3 -4 -2 -15 4 -25 14 -27 57 -24 70 4 13 28 72 57 116 57 34 0 43 -16 43
-82 0 -49 -33 -86 -125 -142 l-70 -43 -3 -65 c-2 -55 3 -81 29 -148 26 -67 29
-84 18 -91 -8 -5 -17 -9 -21 -9 -19 0 -38 -64 -38 -123 0 -87 -14 -122 -56
-142 -36 -17 -74 -13 -74 8 0 7 -1 90 -1 185 0 199 8 185 -111 197 -109 11
-181 26 -231 47 -41 18 -48 24 -42 42 22 75 26 171 16 346 -8 121 -8 212 -2
264 5 44 7 85 4 92 -3 7 -25 25 -49 39 -46 27 -64 51 -64 85 0 26 52 50 110
50 l40 0 0 45 c0 25 -4 45 -9 45 -5 0 2 20 16 45 21 38 29 45 52 43 27 -2 29
-6 44 -87z m-2983 -20 c5 -11 10 -44 10 -74 0 -53 -1 -54 -37 -70 -60 -27 -84
-26 -102 4 -30 54 29 159 89 159 19 0 33 -7 40 -19z m132 -268 c10 -9 18 -26
18 -38 0 -13 7 -28 15 -35 18 -15 20 -95 4 -137 -22 -57 -36 -250 -34 -471 3
-235 8 -263 43 -229 15 16 18 49 23 295 3 152 8 284 12 292 7 14 32 18 70 11
4 0 7 -25 7 -55 0 -30 3 -57 8 -60 15 -9 73 24 120 68 58 54 82 59 82 17 0
-16 -7 -34 -15 -41 -8 -7 -15 -25 -15 -40 0 -60 -12 -90 -34 -90 -12 0 -45 -7
-73 -15 -42 -13 -53 -21 -62 -47 -17 -47 -14 -95 6 -107 24 -13 53 4 53 32 0
31 20 54 51 59 25 4 28 1 33 -34 3 -21 11 -38 16 -38 7 0 9 -90 8 -257 l-3
-257 -50 -25 c-38 -18 -71 -26 -133 -29 -83 -5 -84 -5 -107 -41 -32 -50 -47
-109 -54 -221 l-6 -95 -54 -27 c-57 -29 -126 -37 -161 -18 -26 14 -27 4 -34
-198 -7 -193 -17 -241 -61 -288 -44 -47 -71 -45 -77 4 -3 20 0 50 5 66 6 19 7
96 2 215 -4 102 -8 212 -9 245 -1 44 -5 61 -18 70 -13 8 -21 7 -29 -1 -14 -14
-16 -132 -5 -324 10 -159 4 -214 -23 -228 -9 -5 -55 -16 -102 -25 -46 -8 -92
-18 -102 -21 -32 -13 -47 49 -47 196 0 127 1 134 28 175 18 30 34 44 49 44 12
0 33 5 46 11 23 11 25 16 29 131 8 183 -8 224 -84 215 -30 -4 -41 0 -62 22
-29 30 -31 39 -15 74 7 15 25 29 50 36 62 19 133 94 223 236 80 127 82 130
121 133 21 1 50 8 64 15 25 12 26 16 29 116 2 93 5 107 28 137 23 29 28 32 49
22 24 -11 45 -53 45 -92 1 -16 6 -11 23 19 28 53 28 128 -2 318 -28 173 -22
233 31 293 33 38 53 42 80 17z m4463 -35 c32 -28 49 -128 23 -128 -40 0 -77
64 -78 133 0 24 24 21 55 -5z m-7776 -55 c18 -16 19 -22 9 -60 -10 -35 -17
-43 -35 -43 -32 0 -63 34 -63 69 0 23 6 32 28 39 37 14 37 14 61 -5z m-1662
-29 c10 -28 -11 -86 -39 -107 -45 -34 -95 -2 -111 71 -5 19 1 26 26 37 46 20
116 19 124 -1z m358 0 c45 -21 65 -86 41 -132 -9 -17 -16 -38 -16 -47 0 -20
-58 -20 -84 0 -11 8 -31 15 -44 15 -24 0 -25 1 -20 75 3 41 11 81 18 90 16 19
63 19 105 -1z m6900 -103 c48 -21 91 -69 100 -112 10 -42 -5 -53 -69 -53 -92
2 -176 65 -176 133 0 56 8 64 59 56 25 -4 64 -15 86 -24z m-5045 12 c0 -4 -20
-46 -45 -94 -104 -201 -150 -403 -142 -624 8 -234 64 -373 216 -527 36 -38 60
-68 53 -68 -9 0 -7 -9 7 -26 33 -42 28 -99 -12 -139 -46 -46 -103 -60 -170
-42 -29 8 -137 37 -242 65 -104 28 -208 57 -231 65 -87 32 -169 81 -225 136
-56 54 -59 60 -59 105 l0 48 43 -5 c23 -4 96 -9 162 -12 134 -7 227 4 299 35
37 17 46 26 46 46 0 36 -21 39 -92 13 -53 -19 -83 -22 -183 -22 -189 0 -329
20 -397 55 -32 16 -65 28 -75 26 -34 -8 -201 89 -304 176 -31 25 -36 35 -33
64 3 42 21 62 86 97 77 42 153 41 238 -2 34 -18 68 -33 75 -33 22 0 35 27 50
101 9 52 20 79 35 91 38 30 48 22 70 -54 12 -40 30 -103 40 -139 22 -73 71
-149 98 -149 9 0 41 12 71 25 40 19 84 56 164 138 l109 112 -16 91 c-20 113
-20 174 0 249 26 100 37 112 154 161 77 32 119 43 158 44 28 0 52 -3 52 -7z
m-1205 -33 c19 -61 -29 -134 -86 -128 -29 3 -34 7 -37 32 -2 16 4 48 13 72 16
43 18 44 60 44 35 0 45 -4 50 -20z m5701 12 c19 -12 34 -49 34 -81 0 -25 -4
-31 -21 -31 -51 0 -80 46 -57 94 11 26 24 32 44 18z m-2000 -57 c8 -20 14 -67
14 -114 0 -44 4 -81 9 -83 5 -1 -6 -24 -26 -50 -31 -42 -39 -48 -72 -48 -89 0
-114 91 -65 237 26 79 39 93 85 93 36 0 41 -3 55 -35z m1772 10 c22 -18 34
-40 41 -76 18 -81 17 -82 -31 -76 -59 8 -101 52 -101 106 0 72 38 91 91 46z
m-4890 -97 c27 -27 10 -88 -24 -88 -22 0 -24 4 -24 50 0 41 3 50 18 50 10 0
23 -5 30 -12z m-1862 -103 c28 -19 54 -75 54 -116 0 -43 -25 -69 -66 -69 -76
0 -99 113 -37 182 19 22 23 22 49 3z m6044 -130 c52 -14 98 -29 102 -33 11
-12 -19 -82 -47 -112 -38 -39 -106 -66 -198 -79 -131 -18 -153 -16 -192 23
-33 31 -35 36 -35 103 0 60 3 72 24 92 13 12 36 26 52 31 47 15 192 3 294 -25z
m1790 -161 c39 -16 40 -18 40 -63 0 -41 -3 -49 -25 -59 -44 -20 -122 -13 -153
14 -2 1 11 30 30 63 36 67 45 70 108 45z m-6701 -321 c49 -38 124 -87 167
-110 55 -30 88 -55 107 -83 15 -22 53 -61 83 -87 30 -27 94 -86 142 -133 120
-117 217 -162 492 -230 47 -11 123 -32 170 -46 80 -24 87 -29 112 -70 15 -24
25 -50 22 -57 -3 -6 -48 -39 -100 -72 -90 -56 -99 -59 -158 -60 -50 0 -70 -5
-98 -25 -20 -14 -67 -46 -105 -72 -42 -29 -79 -63 -97 -92 l-29 -46 -23 21
c-20 19 -35 22 -136 23 -62 1 -120 5 -129 9 -22 11 -36 -24 -44 -119 -10 -101
-24 -131 -70 -140 -27 -5 -41 -2 -55 11 -17 16 -18 20 -5 38 18 25 20 80 4
108 -10 20 -11 20 -36 -5 -49 -50 -153 -42 -153 11 0 42 17 60 87 89 94 38
113 57 113 111 0 59 -25 74 -137 80 -116 6 -153 18 -153 47 0 36 34 58 123 81
l82 21 -1 47 c0 36 -7 57 -31 89 -28 38 -36 43 -67 41 -19 -1 -62 -14 -95 -28
-73 -30 -141 -34 -141 -7 0 10 -5 23 -11 29 -6 6 -12 57 -13 114 -1 60 -8 114
-15 128 -18 32 -11 396 7 429 10 18 21 22 57 22 40 0 55 -8 134 -67z m6584
-27 c61 -54 30 -86 -84 -86 -56 0 -59 1 -59 25 0 13 8 40 17 60 15 31 21 35
52 35 26 -1 46 -10 74 -34z m571 -112 c20 -16 36 -36 36 -44 0 -8 7 -23 15
-34 13 -17 18 -16 107 25 59 27 112 44 146 47 58 5 60 1 38 -52 -29 -70 -107
-98 -324 -115 -73 -6 -153 -16 -178 -22 -54 -14 -60 -9 -70 61 -11 70 11 120
66 148 59 30 114 26 164 -14z m2030 -113 c9 -10 19 -35 23 -55 4 -29 2 -37
-13 -42 -11 -3 -36 -13 -57 -21 -20 -9 -40 -13 -44 -9 -12 11 -7 82 7 116 10
23 19 30 40 30 15 0 35 -8 44 -19z m515 -72 c6 -18 11 -48 11 -68 l0 -36 -113
-2 c-131 -3 -159 5 -147 46 21 70 25 72 130 81 41 4 82 7 92 8 10 1 20 -10 27
-29z m-5218 -35 c30 -27 59 -80 59 -105 0 -8 -23 -10 -74 -7 -102 5 -130 25
-134 98 l-3 52 60 -4 c50 -4 67 -9 92 -34z m-4911 -9 c7 -8 17 -12 23 -8 7 4
8 0 3 -13 -6 -14 -36 -156 -36 -168 0 -1 -28 0 -62 2 -81 5 -105 25 -100 81 8
80 131 156 172 106z m2343 -22 c34 -21 72 -48 84 -61 16 -15 30 -21 45 -17 47
11 87 -25 140 -124 31 -59 46 -100 43 -112 -18 -55 38 -83 58 -29 6 16 26 37
44 47 32 17 33 17 58 -7 14 -13 29 -40 35 -59 13 -47 13 -172 -1 -247 -17 -99
-13 -94 -84 -94 -64 0 -64 0 -73 33 -4 17 -15 32 -23 32 -11 0 -15 -18 -17
-74 -2 -43 1 -77 7 -81 19 -11 -49 -79 -138 -140 -82 -55 -90 -58 -134 -53
-65 8 -84 -11 -93 -89 -7 -58 -8 -60 -107 -164 l-99 -104 -47 6 c-42 5 -50 3
-93 -31 -30 -23 -62 -39 -87 -42 -37 -5 -41 -4 -41 16 0 12 -11 33 -24 46 -25
25 -42 82 -37 130 1 17 16 61 33 99 l30 68 -19 35 c-10 19 -22 37 -26 40 -5 3
-40 8 -79 12 -91 8 -103 23 -69 82 19 34 20 43 10 50 -8 5 -17 9 -21 9 -5 0
-8 21 -8 46 0 52 55 164 80 164 8 0 28 -7 44 -15 39 -21 56 -5 56 51 0 51 46
155 66 147 7 -2 20 9 29 27 15 29 20 31 48 26 51 -10 70 -41 63 -101 -4 -27
-7 -59 -9 -69 -1 -10 4 -21 10 -23 21 -7 34 47 32 127 -4 97 15 130 71 130 22
0 48 -8 63 -20 14 -11 30 -20 35 -20 18 0 20 24 4 42 -11 14 -16 46 -17 130
-2 117 3 154 30 194 22 34 56 30 128 -13z m-2191 -145 c3 -79 0 -120 -9 -138
-7 -14 -13 -37 -13 -52 0 -30 -9 -39 -45 -43 -18 -1 -26 5 -34 24 -16 41 -15
121 2 181 8 30 18 72 22 92 5 36 12 41 61 47 8 1 13 -35 16 -111z m5414 48 c1
-10 7 -23 13 -29 16 -16 13 -59 -4 -84 -20 -28 -83 -47 -128 -39 -44 8 -87 41
-87 67 0 67 66 109 164 106 30 -2 40 -6 42 -21z m3032 -22 c2 -32 -2 -48 -20
-68 -27 -31 -87 -44 -130 -27 -25 9 -28 15 -28 60 0 29 5 53 13 58 17 11 86
21 127 19 34 -1 35 -3 38 -42z m-775 4 c19 -25 20 -34 11 -99 -11 -78 -6 -87
41 -75 16 4 32 21 46 48 l21 42 19 -23 c40 -49 17 -71 -83 -77 -40 -3 -113 -2
-163 3 l-90 8 2 46 c3 97 60 162 137 157 29 -2 44 -10 59 -30z m-7996 -108
c57 -79 89 -110 119 -116 22 -4 33 -15 45 -44 16 -37 16 -40 -7 -97 -25 -63
-67 -106 -121 -124 -28 -9 -38 -7 -68 11 -82 51 -146 162 -153 265 -4 62 -1
73 19 99 26 33 74 57 109 53 16 -1 35 -18 57 -47z m-677 -195 c0 -8 9 -15 20
-15 20 0 20 0 1 -38 -24 -46 -127 -145 -181 -172 -43 -22 -91 -26 -121 -10
-58 31 11 170 110 222 62 33 171 41 171 13z m349 1 c23 -27 61 -111 56 -123
-3 -8 -25 -13 -59 -13 -51 0 -57 2 -71 30 -15 29 -21 101 -8 113 12 12 70 7
82 -7z m-1067 -56 c5 -19 11 -73 13 -120 3 -47 9 -98 13 -114 9 -33 17 -28 52
32 18 29 24 32 68 32 43 0 54 -5 86 -36 34 -33 37 -40 31 -73 -9 -55 -38 -97
-71 -104 -16 -3 -54 -1 -84 4 -30 5 -86 9 -125 8 l-70 -2 -3 49 c-2 27 -10 56
-18 65 -12 14 -12 20 1 52 8 19 17 62 20 94 4 32 11 80 17 106 9 44 13 48 36
45 21 -2 28 -10 34 -38z m9571 21 c7 -28 -11 -41 -56 -41 l-38 0 18 30 c21 36
67 42 76 11z m-8668 -61 c43 -27 57 -63 53 -144 l-3 -68 -40 -15 c-22 -8 -55
-17 -72 -20 l-33 -5 0 92 c0 80 3 97 26 136 14 24 28 44 31 44 3 0 20 -9 38
-20z m10057 -15 c21 -14 38 -29 38 -34 0 -22 -54 -51 -94 -51 -54 0 -86 22
-86 60 0 62 68 74 142 25z m-4891 -18 c36 -24 62 -80 52 -115 -14 -55 -172
-53 -173 1 -1 34 53 136 71 137 9 0 31 -10 50 -23z m839 5 c42 -34 7 -128 -57
-153 -51 -19 -79 -12 -98 27 -21 44 -14 77 25 115 34 35 95 40 130 11z m2750
-1 c0 -44 -88 -107 -177 -126 -28 -6 -33 -4 -33 13 0 25 16 38 60 47 41 9 60
22 60 43 0 21 30 41 63 42 20 0 27 -5 27 -19z m563 -92 c10 -15 22 -48 25 -74
4 -41 2 -50 -22 -71 -14 -14 -26 -29 -26 -35 0 -12 -72 -1 -118 17 -65 26 -63
105 5 164 45 40 105 40 136 -1z m-8510 -50 c39 -10 60 -35 71 -81 6 -25 4 -28
-21 -28 -71 0 -121 -65 -142 -186 -6 -33 -20 -77 -30 -97 -17 -33 -91 -102
-145 -135 -32 -20 -95 -8 -153 28 -52 33 -91 37 -144 15 -12 -5 -20 2 -28 26
-31 90 11 168 90 169 34 0 37 -3 42 -32 4 -26 23 -88 33 -106 5 -9 151 99 170
124 34 48 47 101 41 171 l-6 63 40 27 c22 14 61 32 87 39 59 16 51 16 95 3z
m1348 1 c5 0 9 -8 9 -18 0 -10 11 -29 25 -42 15 -14 25 -35 25 -52 l0 -28 -70
0 -70 0 0 59 c0 51 3 62 22 76 13 8 29 13 36 10 8 -3 18 -5 23 -5z m5983 -9
c10 -11 20 -38 23 -60 l6 -41 -61 0 c-72 0 -81 12 -53 76 16 34 25 44 44 44
13 0 32 -9 41 -19z m-4229 -11 c33 -5 105 -12 161 -14 55 -3 107 -7 115 -10 8
-2 50 -7 94 -10 149 -11 262 -55 335 -130 19 -20 38 -36 41 -36 4 0 42 -35 85
-78 88 -88 198 -167 220 -158 27 10 14 36 -33 69 -27 17 -85 68 -130 111 -99
95 -105 115 -42 163 45 35 48 35 159 7 103 -25 334 -53 560 -69 372 -25 473
-35 601 -56 148 -24 231 -31 844 -69 606 -37 972 -67 1053 -86 123 -28 214
-87 377 -244 218 -211 408 -373 524 -449 34 -22 71 -51 81 -64 11 -13 34 -30
52 -38 18 -7 60 -37 92 -67 212 -194 678 -540 1331 -988 176 -121 362 -251
414 -288 52 -38 99 -69 105 -70 13 -2 151 -110 161 -127 4 -6 -4 -30 -16 -55
-18 -32 -33 -47 -58 -55 -26 -9 -146 -7 -492 7 -416 16 -481 17 -716 3 -291
-16 -370 -16 -598 -5 -114 6 -176 5 -215 -3 -83 -18 -714 -15 -804 4 -81 17
-152 56 -175 96 -9 16 -21 29 -28 29 -6 0 -91 60 -190 133 -196 146 -499 363
-868 622 -829 582 -1289 929 -1659 1253 -88 78 -111 94 -125 85 -9 -6 -16 -16
-16 -24 0 -16 251 -234 495 -428 324 -258 617 -472 1305 -956 422 -296 689
-488 868 -622 128 -97 137 -106 137 -137 0 -32 -2 -34 -47 -41 -27 -4 -201 -9
-388 -10 -187 -2 -356 -7 -375 -12 -34 -8 -42 -4 -270 156 -1192 833 -1775
1288 -2389 1864 -318 299 -691 702 -691 748 0 24 26 59 44 59 6 0 38 -5 71
-10z m-4982 -76 c17 -83 19 -102 8 -108 -6 -4 -11 -16 -11 -27 0 -23 -23 -25
-44 -3 -20 19 -20 23 1 112 18 79 33 88 46 26z m1235 13 c31 -29 29 -65 -5
-78 -42 -16 -53 -5 -53 49 0 69 8 73 58 29z m3683 -174 c675 -764 1447 -1404
3011 -2497 109 -76 200 -141 203 -145 20 -34 -87 -188 -156 -226 -22 -11 -62
-39 -88 -62 -41 -36 -54 -41 -94 -41 -33 0 -65 -10 -114 -35 -42 -22 -95 -40
-138 -47 -38 -6 -104 -17 -145 -26 -46 -9 -161 -17 -300 -21 -244 -6 -381 6
-611 51 -119 23 -151 21 -163 -9 -10 -27 12 -54 53 -65 87 -23 335 -60 481
-71 214 -16 493 2 650 40 92 23 90 23 90 -2 0 -16 -13 -33 -43 -55 -68 -48
-243 -137 -349 -176 -95 -35 -342 -103 -463 -126 -67 -14 -85 -24 -85 -50 0
-39 23 -43 127 -20 346 74 594 167 790 296 68 46 88 54 127 54 25 0 46 -1 46
-3 0 -25 -133 -302 -200 -418 -124 -214 -333 -485 -547 -711 -73 -76 -92 -118
-55 -118 46 0 383 393 549 641 108 160 221 369 278 514 15 39 35 79 45 90 10
11 38 63 63 115 63 137 149 208 198 164 23 -21 23 -25 -9 -149 -11 -44 -26
-118 -32 -165 l-13 -85 -102 -135 c-56 -74 -208 -286 -337 -470 -437 -625
-590 -823 -811 -1055 l-92 -97 -70 -5 c-63 -5 -77 -2 -124 21 -29 15 -73 46
-98 69 -92 84 -391 509 -513 727 -78 140 -298 586 -359 730 -30 69 -77 190
-105 270 -50 140 -52 146 -91 165 -38 20 -40 25 -68 120 -27 95 -98 327 -228
750 -160 516 -231 860 -246 1202 l-6 141 41 21 c50 26 58 38 39 59 -43 49 -72
137 -111 340 -15 73 -33 150 -42 170 -18 41 -43 238 -44 345 0 89 16 107 99
107 l59 0 103 -117z m4783 11 c3 -9 6 -36 6 -60 l0 -44 -45 0 c-25 0 -45 4
-45 9 0 5 -3 17 -6 25 -4 11 7 28 32 51 43 39 49 42 58 19z m-7310 -139 c-41
-31 -82 -45 -114 -39 -36 8 -63 42 -58 76 3 20 9 23 58 26 30 2 59 7 64 12 4
4 22 -7 38 -26 30 -34 30 -35 12 -49z m-2421 -10 c24 -23 30 -70 22 -163 l-7
-85 38 7 c60 12 133 42 219 91 188 108 193 110 215 90 45 -41 45 -147 0 -220
-15 -24 -17 -34 -8 -43 16 -16 53 -15 86 2 26 14 58 19 95 17 19 -1 77 -110
77 -146 0 -39 -28 -65 -70 -65 -52 0 -82 13 -129 55 l-40 36 -60 -45 c-78 -57
-143 -83 -179 -70 -22 8 -34 23 -59 72 -5 12 -43 -23 -58 -54 -15 -32 -16 -53
-11 -143 4 -58 11 -110 16 -115 5 -5 43 -3 89 4 89 15 111 8 111 -36 0 -30 3
-30 48 1 20 14 49 25 65 25 102 0 84 -97 -29 -157 -77 -41 -104 -71 -111 -122
-3 -23 -6 -41 -7 -41 0 0 -25 9 -54 20 -29 11 -114 34 -188 50 -74 16 -139 32
-143 35 -19 11 -39 885 -21 944 18 63 61 89 93 56z m2093 -1 c37 -8 76 -13 85
-11 20 5 65 -48 49 -58 -6 -3 -10 -15 -10 -27 0 -11 -12 -42 -27 -68 -24 -43
-32 -49 -68 -54 -54 -8 -153 8 -209 33 -46 20 -46 20 -46 71 0 55 19 103 47
119 26 15 103 13 179 -5z m8608 -26 c18 -26 22 -122 6 -162 -8 -22 -16 -26
-48 -26 -47 0 -80 22 -98 66 -16 38 -10 79 15 108 35 40 102 48 125 14z
m-7914 -23 c34 -18 35 -23 15 -92 -21 -70 -61 -103 -124 -103 -41 0 -49 3 -59
25 -7 14 -12 44 -12 67 0 34 6 47 39 79 43 44 88 51 141 24z m-1662 -128 c2
-11 1 -35 -3 -53 -10 -58 -105 -100 -120 -54 -7 21 11 98 28 118 16 20 91 11
95 -11z m2372 -46 c13 -48 4 -73 -23 -69 -35 5 -44 33 -23 73 11 19 23 35 27
35 5 0 13 -18 19 -39z m-162 17 c7 -7 12 -29 12 -50 0 -44 -26 -67 -89 -75
-33 -5 -44 -1 -66 21 -20 20 -25 34 -23 58 3 28 8 34 43 44 53 16 108 17 123
2z m-1980 -86 c2 -13 -4 -45 -14 -72 -17 -47 -17 -51 0 -87 16 -34 16 -37 1
-46 -46 -25 -74 -78 -61 -113 10 -25 39 -11 48 23 12 45 24 48 59 19 17 -14
34 -26 39 -26 4 0 38 11 74 25 77 29 96 31 96 10 0 -9 7 -29 15 -45 15 -29 15
-30 -50 -110 -95 -117 -145 -231 -145 -328 0 -29 -3 -33 -17 -27 -10 4 -35 9
-55 12 -34 5 -41 1 -88 -45 -52 -52 -106 -78 -141 -69 -17 5 -19 0 -19 -41 0
-26 -7 -78 -15 -116 -8 -38 -12 -72 -9 -75 3 -3 40 -5 82 -5 56 1 102 10 170
32 l93 30 -3 -76 c-3 -68 -5 -77 -23 -80 -11 -2 -90 -31 -175 -65 -85 -33
-193 -70 -240 -83 l-85 -22 -8 -88 c-8 -103 -6 -114 26 -114 29 0 43 14 52 53
4 15 10 27 13 27 3 0 34 -16 70 -36 58 -33 70 -36 116 -30 l51 6 0 -73 c0 -71
0 -72 25 -68 14 1 40 16 58 32 20 18 44 29 63 29 40 0 51 -32 43 -125 -5 -51
-3 -74 5 -79 23 -15 39 15 46 89 6 65 4 81 -14 118 -26 54 -26 70 0 187 12 55
18 109 14 128 -6 30 -4 32 17 27 16 -4 46 8 102 41 89 54 129 60 158 25 16
-21 18 -42 18 -185 -1 -101 -6 -185 -15 -226 -8 -36 -14 -92 -15 -125 l0 -61
-52 -39 c-28 -22 -69 -62 -91 -90 -31 -40 -47 -51 -79 -57 -21 -4 -66 -23 -98
-43 -59 -36 -60 -36 -250 -51 l-191 -16 -28 31 c-26 27 -36 31 -84 31 -59 0
-109 -14 -146 -40 -23 -16 -27 -16 -90 6 -36 13 -78 24 -92 24 -14 0 -28 3
-31 6 -10 9 129 133 158 140 15 4 42 1 61 -5 30 -11 36 -11 49 6 27 35 47 124
41 186 -9 95 -20 98 -113 34 -69 -47 -193 -117 -209 -117 -3 0 -5 11 -5 23 0
33 -31 58 -78 64 -36 5 -41 3 -60 -30 -17 -26 -22 -50 -22 -98 0 -106 -2 -109
-75 -109 -49 0 -79 -7 -130 -30 -37 -16 -70 -30 -75 -30 -19 0 -40 121 -40
231 0 63 -4 141 -10 173 -8 51 -7 61 8 72 25 19 2 40 -26 25 -25 -13 -35 -14
-28 -3 3 5 -1 30 -9 57 -20 64 -21 274 -1 300 10 14 27 18 82 19 l69 1 11 -33
11 -34 26 59 c14 32 35 83 47 113 12 30 30 69 41 86 18 29 22 31 63 27 25 -3
79 2 121 12 74 16 121 16 156 1 24 -10 39 40 39 128 l0 71 83 24 c84 26 147
70 147 105 0 14 8 16 50 10 35 -5 61 -2 90 10 32 12 50 14 76 7 29 -8 36 -7
49 12 8 11 19 46 25 76 6 31 18 79 26 106 8 28 18 91 23 141 11 108 41 197 78
236 24 25 34 28 73 26 38 -3 45 -6 48 -26z m1517 -88 c167 -8 155 0 138 -91
-8 -43 -15 -117 -16 -165 -3 -109 7 -121 112 -143 41 -8 80 -20 87 -26 17 -14
11 -51 -15 -88 -24 -33 -27 -34 -81 -31 -86 5 -132 48 -134 127 -1 46 -2 47
-39 55 -21 4 -61 18 -88 29 -60 26 -59 26 -117 -76 -36 -62 -43 -70 -68 -68
-32 3 -80 45 -89 80 -9 37 10 82 81 202 36 59 69 130 76 159 10 40 16 51 28
46 8 -3 65 -8 125 -10z m8960 -83 c45 -21 113 -85 156 -148 33 -47 72 -133 65
-141 -8 -7 -193 18 -250 35 -99 29 -186 93 -186 135 0 39 59 116 100 131 30
11 76 6 115 -12z m-10777 -117 l34 -35 -16 -37 c-16 -36 -24 -41 -108 -69 -16
-5 -18 2 -18 60 0 121 40 151 108 81z m9172 -62 c21 -17 22 -21 9 -48 -16 -33
-47 -41 -90 -24 -36 15 -39 52 -7 74 30 21 61 20 88 -2z m-8176 -73 c30 -14
56 -65 56 -109 0 -24 -10 -41 -42 -71 -23 -21 -48 -39 -55 -39 -18 0 -90 37
-98 50 -3 5 -15 10 -26 10 -15 0 -19 7 -19 35 0 97 98 163 184 124z m395 -166
c7 -21 15 -81 18 -134 5 -81 2 -109 -15 -166 -47 -154 -200 -324 -394 -437
-58 -34 -67 -66 -49 -173 7 -40 9 -77 6 -83 -9 -15 -77 -12 -98 4 -29 22 -77
163 -77 226 0 54 1 56 47 90 26 19 70 64 98 99 113 145 132 165 184 194 42 24
69 31 128 35 l75 5 -4 48 c-4 37 -17 66 -57 125 -54 81 -64 125 -39 179 11 24
15 25 88 25 l77 0 12 -37z m-511 -122 c15 -8 22 -21 22 -42 0 -26 -6 -33 -42
-49 -72 -33 -78 -29 -78 43 l0 62 37 -1 c21 0 48 -6 61 -13z m9837 -492 c22
-6 63 -22 92 -36 41 -21 55 -34 68 -65 15 -38 15 -40 -7 -59 -38 -33 -101 -59
-144 -59 -23 0 -72 9 -109 21 l-67 20 7 52 c10 70 30 106 68 122 39 17 42 18
92 4z m-6967 -750 c3 -39 -17 -65 -43 -55 -10 4 -15 20 -15 51 0 45 1 46 28
43 23 -3 27 -8 30 -39z m-3254 -181 c8 -30 8 -82 0 -102 -4 -10 -14 -14 -28
-11 -11 2 -47 7 -78 10 -52 6 -58 9 -58 30 0 23 21 41 95 79 42 22 62 20 69
-6z m-1554 -62 c-7 -44 -24 -76 -41 -76 -23 0 -49 42 -49 80 l0 40 48 0 49 0
-7 -44z m4897 -8 c-4 -13 -9 -43 -13 -67 l-7 -44 54 6 54 7 17 -53 c9 -28 26
-80 38 -114 22 -60 22 -64 5 -89 -9 -14 -26 -29 -36 -31 -29 -8 -14 -20 35
-27 61 -9 86 -32 93 -84 l6 -42 -44 -1 c-24 -1 -109 -2 -189 -2 l-145 0 0 59
c0 57 1 59 28 62 50 6 59 64 11 82 -16 7 -21 14 -17 29 4 18 13 21 53 21 48 0
78 18 65 40 -3 5 -33 10 -65 10 -48 0 -61 4 -70 19 -15 30 -13 71 5 71 23 0
33 37 24 92 -11 70 -6 78 53 78 47 0 50 -1 45 -22z m5178 -53 c27 -10 84 -14
181 -15 l142 0 16 -40 c9 -22 16 -49 16 -60 0 -18 7 -20 74 -20 66 0 75 -2 89
-24 12 -17 13 -32 7 -61 -11 -49 -21 -58 -68 -58 -41 0 -112 43 -112 67 0 8
-43 11 -142 10 -125 -1 -149 -4 -187 -23 -56 -26 -83 -27 -106 -1 -20 22 -59
25 -135 10 -50 -9 -53 -7 -71 52 -18 57 1 91 64 117 29 12 70 30 92 41 49 23
87 24 140 5z m689 -8 c12 -12 28 -31 34 -42 10 -20 11 -20 34 1 43 39 83 37
115 -5 10 -14 14 -14 35 7 28 26 50 27 108 7 53 -19 76 -12 95 25 l15 29 33
-19 c17 -10 69 -28 115 -38 54 -13 92 -28 109 -43 30 -29 66 -96 58 -109 -3
-5 -35 -19 -71 -30 -51 -15 -95 -20 -188 -20 -84 -1 -133 -6 -161 -16 -22 -9
-49 -18 -60 -21 -27 -6 -75 32 -75 59 0 21 -1 21 -20 3 -33 -30 -72 -22 -151
29 -41 26 -86 50 -101 53 -15 3 -34 16 -42 28 -13 20 -13 28 2 74 16 49 18 51
55 51 26 0 45 -7 61 -23z m-2003 -33 c19 -20 24 -37 24 -74 0 -65 -29 -106
-74 -103 -17 0 -38 7 -46 13 -23 19 -18 85 10 140 29 57 49 63 86 24z m261 15
c13 -6 35 -27 49 -48 24 -34 25 -40 12 -64 -7 -15 -22 -27 -31 -27 -10 0 -28
-14 -41 -31 -28 -37 -69 -37 -89 1 -16 31 -11 142 7 164 15 18 60 21 93 5z
m598 -45 c16 -40 -3 -64 -50 -64 -38 0 -80 26 -80 49 0 33 14 41 66 41 49 0
55 -2 64 -26z m-462 -87 c11 -13 27 -67 20 -67 -2 0 -20 8 -39 18 -31 16 -34
21 -26 40 11 25 29 28 45 9z m2714 -221 c36 -8 81 -22 98 -31 29 -15 31 -20
25 -48 -3 -18 -10 -160 -15 -317 -4 -157 -13 -301 -18 -320 -21 -71 -24 -80
-28 -80 -3 0 -35 15 -72 34 -78 39 -181 116 -307 230 -191 173 -269 232 -372
286 -57 29 -65 38 -98 101 -20 39 -33 75 -29 81 12 20 109 55 184 68 41 6 82
13 90 15 42 11 480 -5 542 -19z m-7002 -228 c0 -42 4 -54 29 -77 33 -31 39
-54 23 -92 -12 -30 -30 -39 -78 -39 l-34 0 0 58 c-1 31 -7 84 -15 117 -22 90
-22 91 30 87 l45 -4 0 -50z m292 27 c10 -22 8 -30 -21 -63 -17 -20 -41 -52
-53 -70 -22 -34 -82 -75 -72 -48 3 7 -1 20 -9 27 -7 8 -17 27 -21 42 -6 26 -5
28 14 22 33 -11 50 12 50 66 l0 49 50 0 c44 0 52 -3 62 -25z m2946 -272 c18
-167 14 -475 -10 -787 -16 -202 -22 -369 -22 -594 l-1 -313 -55 -27 c-50 -25
-64 -27 -165 -26 -65 1 -197 14 -320 33 -175 26 -241 31 -395 31 -231 1 -314
10 -346 41 l-24 22 60 66 c289 318 431 502 845 1096 203 291 404 565 415 565
4 0 12 -48 18 -107z m-2848 49 c17 -14 23 -30 24 -63 1 -42 -1 -44 -29 -47
-16 -2 -63 -1 -102 3 l-73 7 0 31 c1 67 125 114 180 69z m-205 -158 c203 -7
250 -11 285 -24 43 -15 70 -44 70 -75 0 -42 -47 -48 -309 -41 -137 4 -252 2
-274 -3 -33 -8 -42 -6 -59 11 -18 18 -20 28 -14 76 4 31 12 60 19 65 7 4 48 5
92 1 44 -3 130 -8 190 -10z m406 -191 c16 -10 29 -25 29 -35 0 -34 -22 -66
-50 -71 -30 -7 -47 -34 -30 -51 6 -6 48 -11 93 -11 107 0 137 -17 137 -75 l0
-40 -87 -1 c-49 0 -124 -4 -168 -8 -67 -6 -87 -4 -122 11 -22 10 -69 21 -102
25 -34 3 -65 11 -68 16 -4 6 10 25 30 42 20 18 37 37 37 43 0 29 -94 56 -225
66 -28 2 -30 -30 -6 -84 32 -71 8 -90 -88 -70 l-57 12 3 86 c2 48 6 97 9 109
8 39 33 41 414 33 101 -3 164 0 180 7 34 16 38 16 71 -4z m-303 -298 c117 -19
136 -39 85 -87 -53 -49 -66 -51 -223 -44 -106 5 -154 4 -173 -5 -40 -18 -42
-39 -7 -67 48 -38 40 -52 -30 -52 l-60 0 0 78 c0 44 -5 83 -11 89 -8 8 -9 28
-4 58 l7 47 36 -5 c165 -25 242 -30 256 -18 9 7 13 18 9 24 -4 7 0 8 13 3 10
-4 56 -14 102 -21z m260 -94 c9 -5 25 -12 35 -15 22 -7 23 -53 2 -83 -30 -43
-132 -53 -182 -18 -22 15 -21 16 26 60 26 25 53 45 60 45 6 0 11 5 11 10 0 13
25 13 48 1z m312 -91 c0 -11 -9 -29 -20 -40 -38 -38 -100 -16 -100 36 0 23 3
24 60 24 53 0 60 -2 60 -20z"/>
<path d="M9650 7830 c-14 -26 4 -86 29 -100 25 -13 31 -4 31 46 0 62 -38 96
-60 54z"/>
<path d="M6450 7341 c-16 -31 -12 -86 8 -104 30 -27 40 -20 53 38 10 43 9 57
-1 70 -17 21 -47 19 -60 -4z"/>
<path d="M6360 7105 c-17 -21 -24 -101 -13 -145 7 -25 15 -35 29 -35 13 0 18
6 16 20 -4 28 -4 126 0 149 4 24 -15 31 -32 11z"/>
<path d="M6470 7059 c-1 -24 -7 -55 -15 -69 -8 -14 -14 -28 -15 -32 0 -5 29
-8 65 -8 57 0 69 3 91 25 34 34 28 59 -15 62 -19 2 -44 11 -55 21 -56 48 -56
48 -56 1z"/>
<path d="M6152 6858 c-7 -7 -12 -36 -12 -66 0 -52 1 -53 28 -50 25 3 27 6 30
57 2 37 -1 57 -10 62 -17 12 -22 11 -36 -3z"/>
<path d="M6457 6726 c-3 -8 -30 -27 -59 -42 -52 -28 -53 -30 -53 -74 l0 -45
39 -3 c21 -2 52 2 68 9 63 26 92 121 46 153 -28 20 -34 20 -41 2z"/>
<path d="M6015 6311 c-3 -10 -17 -27 -31 -36 -19 -12 -24 -23 -22 -43 6 -57
88 -12 88 48 0 36 -26 60 -35 31z"/>
<path d="M2859 6308 c-27 -50 -23 -225 5 -263 12 -17 14 -17 45 1 17 10 40 37
51 59 23 48 38 165 21 165 -6 0 -23 14 -38 30 -31 36 -67 39 -84 8z"/>
<path d="M4537 6383 c-14 -13 -7 -64 9 -70 18 -7 47 23 41 41 -5 15 -43 37
-50 29z"/>
<path d="M4359 6326 c-8 -18 -9 -44 -3 -88 8 -53 12 -63 29 -63 18 0 20 6 19
85 0 71 -3 85 -17 88 -10 2 -21 -7 -28 -22z"/>
<path d="M4387 6053 c-2 -4 -13 -40 -23 -79 -17 -69 -17 -73 1 -100 18 -27 18
-27 26 -7 4 12 18 27 30 33 21 12 98 9 129 -4 13 -5 15 6 13 76 l-1 83 -85 3
c-47 1 -87 -1 -90 -5z"/>
<path d="M4226 6005 c-10 -26 -7 -63 5 -71 6 -3 18 1 27 10 12 12 14 22 6 43
-11 32 -29 40 -38 18z"/>
<path d="M4042 5915 c-20 -44 -15 -81 16 -105 l27 -22 3 62 c2 35 1 69 -2 76
-9 22 -32 16 -44 -11z"/>
<path d="M4030 5577 c0 -86 2 -97 20 -107 31 -17 40 -4 40 56 0 59 -17 111
-43 133 -16 12 -17 6 -17 -82z"/>
<path d="M7477 5523 c-14 -13 -6 -23 36 -49 23 -15 71 -54 107 -88 82 -78 127
-109 145 -102 22 8 18 34 -7 47 -13 7 -60 46 -106 88 -100 92 -155 125 -175
104z"/>
<path d="M8580 5455 c0 -52 56 -116 113 -130 33 -9 34 3 8 60 -22 49 -46 71
-88 80 -27 5 -33 3 -33 -10z"/>
<path d="M8863 5223 c-54 -19 54 -118 972 -883 286 -238 584 -489 662 -557
140 -121 183 -146 183 -103 0 25 -109 120 -814 709 -314 261 -661 555 -771
651 -220 193 -215 189 -232 183z"/>
<path d="M7959 5124 c-12 -15 -7 -23 40 -66 117 -108 613 -512 906 -739 447
-347 1033 -779 1055 -779 23 0 32 24 17 43 -7 8 -118 92 -247 187 -638 469
-1144 867 -1668 1308 -40 34 -77 62 -81 62 -5 0 -15 -7 -22 -16z"/>
<path d="M10836 3545 c-7 -20 34 -58 124 -111 78 -46 98 -52 118 -32 13 13 -2
48 -22 48 -7 0 -50 25 -96 55 -86 57 -114 66 -124 40z"/>
<path d="M10117 3443 c-4 -3 -7 -9 -7 -13 0 -9 122 -88 140 -90 50 -7 55 22 8
46 -18 9 -47 28 -64 40 -30 23 -64 31 -77 17z"/>
<path d="M5361 4366 c-9 -11 -1 -38 39 -128 206 -457 470 -860 807 -1231 117
-128 145 -153 163 -142 25 15 4 52 -73 133 -354 371 -636 801 -870 1325 -26
57 -44 69 -66 43z"/>
<path d="M6443 2189 c-19 -19 -3 -43 55 -85 72 -52 150 -92 227 -115 53 -17
61 -17 75 -4 23 24 1 47 -66 71 -79 27 -139 58 -201 105 -55 41 -72 46 -90 28z"/>
<path d="M700 4100 c0 -27 3 -30 30 -30 27 0 30 3 30 30 0 27 -3 30 -30 30
-27 0 -30 -3 -30 -30z"/>
<path d="M1018 4113 c-10 -19 -2 -117 9 -120 20 -7 35 46 26 86 -8 33 -27 51
-35 34z"/>
<path d="M860 4093 c-17 -6 -40 -32 -40 -45 0 -13 85 -9 104 5 15 11 15 15 4
24 -18 15 -50 22 -68 16z"/>
<path d="M553 4028 c4 -27 14 -49 28 -61 22 -18 23 -18 41 30 26 69 25 73 -28
73 l-47 0 6 -42z"/>
<path d="M584 3813 c8 -59 22 -75 42 -49 8 11 14 27 14 36 0 23 -29 60 -47 60
-13 0 -15 -8 -9 -47z"/>
<path d="M1832 3553 c3 -41 18 -51 42 -28 20 20 20 29 0 49 -28 29 -46 20 -42
-21z"/>
<path d="M1506 3438 c-2 -7 -9 -40 -15 -72 -10 -51 -9 -62 6 -78 9 -10 26 -18
38 -18 20 0 23 7 29 70 4 43 2 79 -4 90 -12 22 -49 27 -54 8z"/>
<path d="M1390 3310 c0 -47 2 -51 22 -48 28 4 47 51 32 76 -6 9 -21 18 -33 20
-19 3 -21 -1 -21 -48z"/>
<path d="M7465 11431 c-27 -16 -85 -65 -129 -110 -43 -45 -80 -81 -83 -81 -3
0 -23 -15 -46 -34 -107 -87 -265 -162 -577 -274 -248 -89 -288 -105 -384 -153
-112 -57 -171 -99 -358 -256 -273 -230 -317 -260 -623 -433 -404 -228 -626
-375 -920 -610 -148 -118 -221 -169 -355 -250 -202 -122 -442 -225 -652 -280
-60 -16 -116 -34 -124 -41 -19 -15 -18 -43 2 -60 19 -16 87 -3 243 46 334 105
628 266 936 514 271 217 492 364 910 603 298 171 372 221 602 414 317 264 341
278 754 424 253 90 410 160 522 233 48 31 123 74 168 97 178 89 241 158 224
246 -5 29 -10 34 -33 34 -15 0 -49 -13 -77 -29z"/>
<path d="M1800 7159 c0 -63 41 -99 91 -79 22 9 29 19 29 39 0 14 -4 31 -8 37
-12 19 -49 34 -81 34 -28 0 -31 -3 -31 -31z"/>
<path d="M12569 4579 c-18 -18 -19 -23 -6 -42 17 -26 58 -33 98 -16 35 14 57
47 37 53 -7 2 -28 9 -47 15 -47 15 -58 14 -82 -10z"/>
<path d="M3926 4398 c-9 -36 -7 -73 6 -86 31 -31 53 52 24 91 -17 22 -22 22
-30 -5z"/>
<path d="M3916 3655 c-3 -9 -6 -85 -6 -170 0 -123 3 -155 15 -165 12 -10 18
-10 30 0 13 11 15 40 13 179 -3 161 -4 166 -24 169 -13 2 -24 -4 -28 -13z"/>
<path d="M2840 3207 c0 -34 31 -87 51 -87 6 0 9 25 7 58 -3 54 -4 57 -30 60
-26 3 -28 1 -28 -31z"/>
<path d="M3880 3031 c-34 -69 -38 -111 -12 -135 16 -14 18 -28 14 -94 -3 -61
-1 -80 11 -90 27 -23 47 -4 47 44 0 24 8 63 18 86 25 62 23 179 -4 215 -11 15
-25 28 -32 31 -6 2 -25 -24 -42 -57z"/>
<path d="M2870 3017 c0 -10 -12 -40 -26 -68 -29 -59 -28 -96 4 -117 21 -14 23
-13 39 24 22 53 23 139 0 161 -16 16 -17 16 -17 0z"/>
<path d="M2880 2655 c-10 -12 -12 -100 -11 -380 1 -200 4 -371 7 -380 4 -9 15
-15 28 -13 l21 3 -3 380 c-1 209 -2 386 -2 393 0 17 -25 15 -40 -3z"/>
<path d="M10100 2470 c-6 -11 -7 -26 -3 -34 4 -8 55 -51 112 -97 143 -115 208
-213 175 -266 -21 -33 -17 -61 8 -69 17 -5 28 1 50 25 l28 31 39 -16 c22 -9
43 -24 46 -35 8 -24 45 -25 45 -1 0 30 -28 60 -75 78 -28 10 -45 23 -45 33 0
28 -49 123 -87 170 -51 62 -230 201 -259 201 -13 0 -28 -9 -34 -20z"/>
<path d="M3896 2438 c-18 -55 -27 -179 -36 -477 -6 -189 -9 -350 -6 -358 8
-19 44 -16 54 5 5 9 12 148 16 307 4 160 12 331 18 380 18 143 18 149 -15 153
-16 2 -29 -2 -31 -10z"/>
<path d="M9123 2243 c-7 -2 -13 -13 -13 -23 0 -23 266 -295 298 -305 17 -5 34
-29 58 -78 30 -64 34 -80 34 -155 0 -92 0 -92 72 -56 15 8 38 14 53 14 21 0
25 5 25 28 0 52 -20 102 -43 108 -15 4 -33 28 -58 81 -32 68 -35 80 -26 111
10 29 8 36 -7 48 -22 15 -56 2 -56 -21 0 -36 -43 -7 -147 102 -101 104 -158
154 -173 152 -3 0 -11 -3 -17 -6z"/>
<path d="M11292 1878 c-17 -17 -15 -103 3 -118 12 -10 18 -10 30 0 28 23 16
130 -15 130 -3 0 -11 -5 -18 -12z"/>
<path d="M10757 1863 c-17 -16 -2 -38 69 -106 85 -80 121 -104 136 -89 17 17
5 35 -84 120 -81 77 -105 92 -121 75z"/>
<path d="M10365 1718 c-4 -13 -9 -100 -12 -193 -5 -149 -3 -172 11 -184 23
-19 24 -11 30 179 3 91 7 176 8 190 4 33 -27 40 -37 8z"/>
<path d="M2870 1651 c0 -35 9 -61 21 -61 10 0 12 50 3 74 -10 26 -24 18 -24
-13z"/>
<path d="M11040 1595 c0 -20 32 -75 51 -89 26 -18 69 -22 69 -5 0 25 -24 51
-70 74 -28 14 -50 23 -50 20z"/>
<path d="M9767 1563 c-26 -25 11 -67 371 -418 79 -76 164 -166 190 -198 86
-109 98 -121 115 -114 54 21 -42 151 -277 377 -88 85 -206 201 -261 257 -93
95 -120 114 -138 96z"/>
<path d="M1871 1479 c-22 -64 -4 -139 35 -139 23 0 16 163 -7 168 -11 2 -20
-8 -28 -29z"/>
<path d="M11242 1448 c-19 -19 -15 -40 19 -101 35 -65 42 -71 74 -63 36 9 39
38 11 94 -40 78 -73 101 -104 70z"/>
<path d="M2870 1306 c0 -68 4 -97 14 -105 18 -15 21 -9 37 65 15 73 8 107 -26
122 l-25 12 0 -94z"/>
<path d="M9495 1388 c-3 -8 -4 -88 -3 -178 3 -149 5 -165 21 -168 16 -3 17 9
15 174 -2 131 -6 178 -15 182 -7 2 -15 -3 -18 -10z"/>
<path d="M3902 1363 c-27 -53 -20 -98 14 -91 20 3 40 67 30 93 -7 20 -33 19
-44 -2z"/>
<path d="M1897 1264 c-9 -9 -9 -56 -1 -78 10 -27 24 -18 23 17 -1 39 -12 71
-22 61z"/>
<path d="M11282 1028 c2 -40 8 -73 14 -75 6 -2 11 9 12 24 0 15 8 45 17 66 18
44 13 57 -21 57 -24 0 -25 -1 -22 -72z"/>
<path d="M1112 1037 c-42 -13 -84 -53 -80 -74 7 -35 47 -43 190 -41 l138 3 0
25 c0 35 -26 69 -66 86 -38 16 -134 17 -182 1z"/>
<path d="M1472 998 c3 -43 3 -43 46 -46 l42 -3 0 45 0 46 -46 0 -45 0 3 -42z"/>
<path d="M660 975 c-204 -43 -265 -80 -210 -130 22 -20 15 -21 190 25 41 11
93 20 116 20 22 0 45 5 52 12 19 19 14 55 -10 72 -26 19 -50 19 -138 1z"/>
<path d="M80 920 l0 -60 105 0 105 0 0 39 c0 61 -32 81 -131 81 l-79 0 0 -60z"/>
<path d="M9495 817 c-9 -44 -3 -90 11 -94 18 -6 25 25 18 78 -8 57 -20 63 -29
16z"/>
<path d="M1650 672 c0 -21 2 -41 4 -43 3 -3 23 -3 45 -1 40 4 41 5 41 43 l0
39 -45 0 -45 0 0 -38z"/>
<path d="M1983 435 c-37 -16 -44 -47 -19 -81 12 -16 32 -20 123 -26 59 -3 150
-4 201 0 87 5 95 7 105 30 10 21 8 27 -12 43 -20 16 -41 19 -135 19 -82 1
-116 5 -130 15 -25 19 -91 19 -133 0z"/>
</g>
</svg>
